<svg width="23" height="23" viewBox="0 0 23 23" fill="none" xmlns="http://www.w3.org/2000/svg">
<path d="M17.4495 0H5.55055C2.48508 0 0 2.48508 0 5.55055V17.4495C0 20.5149 2.48508 23 5.55055 23H17.4495C20.5149 23 23 20.5149 23 17.4495V5.55055C23 2.48508 20.5149 0 17.4495 0ZM17.2612 8.80289V10.3576C16.5281 10.3581 15.8156 10.2143 15.1436 9.93088C14.7115 9.7485 14.309 9.51355 13.9411 9.22965L13.9518 14.0156C13.9473 15.0933 13.521 16.1058 12.7493 16.8686C12.1213 17.4894 11.3253 17.8843 10.4628 18.0119C10.2602 18.042 10.054 18.0572 9.84508 18.0572C8.92193 18.0572 8.04506 17.7581 7.32811 17.2064C7.19334 17.1027 7.06396 16.9899 6.94133 16.8686C6.10488 16.0421 5.67363 14.9217 5.74641 13.7429C5.80166 12.8459 6.16104 11.9901 6.75984 11.3194C7.55182 10.4322 8.66049 9.93941 9.84508 9.93941C10.0535 9.93941 10.2597 9.95514 10.4628 9.98523V10.5602V12.1595C10.2705 12.0961 10.0652 12.0611 9.85182 12.0611C8.7692 12.0611 7.89322 12.9442 7.90939 14.0278C7.91973 14.7209 8.29842 15.3269 8.8568 15.6611C9.11914 15.8179 9.42102 15.9154 9.74355 15.9329C9.99602 15.9468 10.2386 15.9118 10.4628 15.8377C11.2363 15.5821 11.7942 14.8557 11.7942 13.999L11.7969 10.7938V4.94275H13.9384C13.9406 5.15479 13.9617 5.36188 14.0021 5.56268C14.1639 6.37441 14.6216 7.07924 15.2586 7.55945C15.8138 7.97857 16.5056 8.22654 17.2554 8.22654C17.2558 8.22654 17.2621 8.22654 17.2617 8.22609L17.2612 8.80289Z" fill="white"/>
</svg>
