<svg fill="none" height="26" viewBox="0 0 26 26" width="26" xmlns="http://www.w3.org/2000/svg"><g fill="#fff"><path d="m.442456 7.47205c.214995-1.13308.418369-2.26616 1.034304-3.27722 1.40618-2.29521 3.60842-3.17843 6.14187-3.23654 3.45737-.08716 6.92047-.081349 10.38367 0 2.3475.05811 4.4394.83093 5.8688 2.86466.9181 1.31321 1.2609 2.81237 1.2899 4.36381.0523 3.32374.0756 6.65324-.0058 9.97694-.0639 2.6787-.9936 4.9623-3.498 6.322-1.1563.6275-2.4288.9006-3.7246.9181-3.4167.0407-6.8334.0755-10.25005-.0058-2.5625-.0581-4.78799-.9239-6.2116-3.2424-.615936-1.0052-.81931-2.1441-1.034304-3.2772.00581-3.8002.00581-7.6062.00581-11.40635zm12.394144-4.17206c-1.6967 0-3.39342-.03486-5.09013.00581-2.64967.06392-4.27665 1.30159-4.75894 3.58519-.10459.48228-.18013.982-.18013 1.4759-.01743 3.21331-.05811 6.42661.00581 9.63411.06392 3.1959 1.67928 4.9042 4.76475 5.0204 3.48064.1278 6.96704.1162 10.44754 0 2.5684-.0872 4.0966-1.319 4.5847-3.5387.0871-.3951.1685-.8019.1743-1.2086.0174-3.6607.2208-7.3273-.1104-10.98218-.1976-2.16738-1.6444-3.57937-3.806-3.87572-2.0047-.26729-4.021-.07553-6.0315-.11621z"/><path d="m19.2168 13.2188c-.0116 3.4516-2.8763 6.2872-6.3918 6.3278-3.52703.0407-6.45561-2.8704-6.44398-6.4091.01162-3.48061 2.98087-6.39757 6.45568-6.32784 3.5735.06392 6.3917 2.89952 6.3801 6.40914zm-2.3766-.0348c.0058-2.1965-1.8071-3.99778-4.0268-4.0094-2.208-.01162-4.0442 1.7955-4.05001 3.9861-.00581 2.1965 1.80711 3.9978 4.02681 4.0094 2.208.0116 4.0442-1.7955 4.05-3.9861z"/><path d="m19.3911 5.13035c.8483-.01163 1.5688.69146 1.5688 1.53401-.0058.80187-.6972 1.49334-1.5166 1.51659-.8483.02324-1.5863-.66823-1.5979-1.50497-.0174-.84835.6741-1.53401 1.5457-1.54563z"/></g></svg>