<svg fill="none" height="29" viewBox="0 0 25 29" width="25" xmlns="http://www.w3.org/2000/svg" xmlns:xlink="http://www.w3.org/1999/xlink"><clipPath id="a"><path d="m0 0h25v29h-25z"/></clipPath><g clip-path="url(#a)"><path d="m4.63773 18.7363c.16587-1.4439.71656-2.2544 1.75823-3.0785 1.49283-1.1169 3.35058-.4904 3.35058-.4904v-3.7663c.45116-.0136.90236.0205 1.35346.0886v4.8424s-1.8577-.6334-3.35054.4903c-1.04166.831-1.59235 1.6346-1.75822 3.0785-.00664.7832.13269 1.8116.763 2.6902-.15924-.0885-.31847-.1839-.47771-.2928-1.39331-.9944-1.64543-2.4996-1.6388-3.562zm14.15207-14.29572c-1.0218-1.19868-1.4132-2.4178-1.5525-3.26914h1.2871s-.2521 2.24072 1.6189 4.44058l.0265.02724c-.5108-.34053-.9753-.74917-1.38-1.19868zm6.2102 3.41216v4.74706s-1.6454-.0681-2.8662-.4018c-1.6986-.4632-2.7933-1.1783-2.7933-1.1783s-.7564-.5108-.8161-.5448v9.8074c0 .5448-.1393 1.907-.564 3.0444-.5506 1.4847-1.4132 2.4654-1.5724 2.663 0 0-1.0483 1.3212-2.8795 2.2134-1.6587.8037-3.1117.7833-3.54964.8037 0 0-2.5146.1022-4.78371-1.4711-.49097-.3474-.94878-.7424-1.36677-1.1783l.01327.0137c2.26911 1.58 4.7837 1.4711 4.7837 1.4711.4379-.0205 1.89095 0 3.54965-.8037 1.8378-.8854 2.8795-2.2135 2.8795-2.2135.1592-.1975 1.0151-1.1782 1.5724-2.663.4247-1.1373.564-2.4995.564-3.0443v-9.80746c.0597.03405.8161.54485.8161.54485s1.0881.71511 2.7932 1.17821c1.2209.3338 2.8663.4019 2.8663.4019v-3.71867c.5639.13621 1.0417.17027 1.3535.13621z" fill="#e5e5e5"/><g fill="#fff"><path d="m23.6465 7.70973v3.71867s-1.6454-.0681-2.8662-.4019c-1.6986-.4631-2.7933-1.17821-2.7933-1.17821s-.7564-.5108-.8161-.54486v9.80747c0 .5448-.1393 1.907-.564 3.0443-.5506 1.4848-1.4132 2.4655-1.5724 2.663 0 0-1.0483 1.3213-2.8795 2.2135-1.6587.8037-3.11174.7832-3.54964.8037 0 0-2.5146.1021-4.78371-1.4711l-.01327-.0069c-.23885-.2519-.46443-.5108-.67011-.7832-.7232-.9467-1.1611-2.0568-1.28052-2.3769v-.0068c-.17914-.5517-.55069-1.8866-.50425-3.167.09289-2.268.83599-3.6642 1.03503-4.0183.51752-.9535 1.2009-1.8049 2.00372-2.52.70992-.613 1.51937-1.1101 2.38853-1.4507.93551-.4086 1.944-.6197 2.95913-.6402v3.7663s-1.85775-.6334-3.35058.4904c-1.04167.8309-1.59236 1.6346-1.75823 3.0785-.00663 1.0624.24549 2.5676 1.6388 3.5688.16587.1089.32511.2111.47771.2928.24549.3338.53742.6334.87579.8786 1.36014.9195 2.5013.9876 3.9544.3882.9753-.4018 1.6985-1.3008 2.0435-2.302.2123-.6266.2123-1.2532.2123-1.9002v-18.49107h3.3904c.1393.85134.5241 2.07046 1.5525 3.26915.4114.4495.8758.85814 1.3801 1.19868.1459.17027.9089.98074 1.8909 1.48473.5109.26562 1.0483.46313 1.599.59254z"/><path d="m.510864 22.0463.086253.252c-.01327-.0341-.046444-.1226-.086253-.252z"/><path d="m6.78078 12.0413c-.86916.3406-1.67198.8378-2.38854 1.4507-.80945.7151-1.4862 1.5733-2.00371 2.5268-.19905.3473-.94215 1.7435-1.03504 4.0183-.05307 1.2872.32511 2.6153.50425 3.167v.0068c.11279.3133.55069 1.4302 1.28052 2.3769.21232.2725.4379.5313.67012.7833-.76964-.5449-1.44639-1.1987-2.03026-1.9479-.71656-.9331-1.16109-2.0432-1.273882-2.3701v-.0136c-.17914-.5517-.5573251-1.8866-.50424656-3.1738.09288746-2.268.83598756-3.6642 1.03502856-4.0184.51752-.9535 1.20091-1.8116 2.00372-2.5267.70992-.613 1.51937-1.1102 2.38853-1.4507.54406-.2316 1.10802-.4018 1.68525-.5108.86916-.1567 1.75822-.1703 2.63402-.0409v1.0761c-1.02176.0273-2.02362.2384-2.96576.647z"/><path d="m17.2372 1.16463h-3.3903v18.48427c0 .647 0 1.2736-.2124 1.9002-.345 1.0012-1.0748 1.9002-2.0435 2.302-1.4596.6062-2.60084.5312-3.95434-.3882-.33837-.2384-.63031-.5312-.8758-.8718 1.1611.6334 2.19613.6198 3.47664.0954.9753-.4019 1.6985-1.3077 2.0435-2.302.2123-.6266.2123-1.2532.2123-1.9002v-18.4843h4.6842c-.0132 0-.0597.456318.0597 1.16463zm6.4093 5.51668v1.02841c-.5507-.13621-1.0881-.33372-1.5857-.59253-.9754-.49718-1.7384-1.31447-1.891-1.48473.1725.11578.3517.21794.5375.3201 1.1876.61296 2.362.79685 2.9392.72875z"/></g></g></svg>