<svg width="23" height="23" viewBox="0 0 23 23" fill="none" xmlns="http://www.w3.org/2000/svg">
<path d="M17.0293 0.322754H5.70872C2.59511 0.322754 0.0394287 2.87843 0.0394287 6.01004V17.3306C0.0394287 20.4442 2.59511 22.9999 5.70872 22.9999H17.0293C20.1609 22.9999 22.7166 20.4442 22.7166 17.3126V6.01004C22.7166 2.87843 20.1609 0.322754 17.0293 0.322754ZM14.4196 11.6613H12.2779V18.6805H9.57824V11.6613H8.13842V8.7817H9.39826V7.55785C9.39826 6.40599 9.97419 4.58822 12.4039 4.58822H14.6176V6.98192H13.0518C12.7998 6.98192 12.4579 7.1439 12.4579 7.70183V8.7817H14.6716L14.4196 11.6613Z" fill="white"/>
</svg>
