<svg width="158" height="43" viewBox="0 0 158 43" fill="none" xmlns="http://www.w3.org/2000/svg">
<path d="M12.7841 22.0289L9.91504 36.7644C9.917 36.7644 9.91896 36.7644 9.92288 36.7644C12.235 36.5063 14.1313 34.8188 14.5843 32.5428L16.3551 23.6225C16.4061 23.3644 16.463 23.118 16.5218 22.8736C15.759 22.289 14.7922 21.9898 13.6116 21.9898C13.3273 21.9898 13.0527 22.0055 12.7841 22.0289Z" fill="white"/>
<path d="M26.9507 6.52108C24.7151 6.52108 22.7933 8.10491 22.3717 10.2949L21.6834 13.879L21.3147 15.7992L19.738 23.9999C19.1281 22.4845 18.277 21.3211 17.1886 20.5096C17.1867 20.5077 17.1847 20.5077 17.1847 20.5057C18.0574 18.13 20.9303 0 20.9303 0C18.7065 0 16.7944 1.5721 16.3709 3.7484L13.343 19.2973C13.2646 19.2953 13.19 19.2895 13.1116 19.2895C9.99352 19.2895 7.27354 20.4334 4.94577 22.7211C2.61997 25.0108 1.10407 27.8637 0.400055 31.2855C0.337301 31.6922 0.254937 32.2417 0.152962 32.9378C0.0509873 33.6319 0 34.2596 0 34.8227C0 37.4781 0.743239 39.5312 2.23168 40.984C3.6103 42.3274 5.46545 42.998 7.80106 42.998C11.2309 42.998 14.3098 41.2949 17.0357 37.8907L16.0728 42.5992C16.0747 42.5992 16.0787 42.5992 16.0806 42.5992C18.4006 42.3528 20.3047 40.6595 20.7499 38.3756L25.2407 15.3162L25.7329 12.784L26.9507 6.52108ZM18.632 28.9313C18.6006 29.252 18.5535 29.7486 18.4908 30.4193C17.9417 33.2311 17.0102 35.5814 15.6943 37.4703C14.0019 39.9379 11.8879 41.1718 9.3503 41.1718C7.54809 41.1718 6.20085 40.548 5.30857 39.2966C4.5418 38.2035 4.15743 36.782 4.15743 35.032C4.15743 34.7035 4.2045 34.1892 4.29863 33.4853C4.39276 32.7833 4.4712 32.2749 4.53395 31.9621C5.1458 28.8844 6.04592 26.4793 7.23628 24.7469C8.67177 22.6859 10.574 21.5518 12.9429 21.3426C13.2116 21.3191 13.4862 21.3035 13.7666 21.3035C14.9471 21.3035 15.9139 21.6027 16.6768 22.1873C17.0572 22.4787 17.3906 22.8365 17.6671 23.2725C18.3398 24.3186 18.6771 25.7715 18.6771 27.631C18.679 28.1765 18.6633 28.6106 18.632 28.9313Z" fill="white"/>
<g clip-path="url(#clip0)">
<path d="M38.829 21.041L37.8173 25.8328H41.1054L42.1171 21.041H46.4169L43.9297 33H39.63L40.6838 27.7986H37.3958L36.3419 33H32L34.445 21.041H38.829Z" fill="white"/>
<path d="M47.8922 21.041L52.2342 21L50.3794 30.0102C50.3794 30.0512 50.3794 30.1331 50.3372 30.1741C50.3372 30.215 50.3372 30.2969 50.3372 30.3379C50.3372 30.3788 50.3372 30.4608 50.3794 30.5017C50.3794 30.5427 50.4215 30.5836 50.4637 30.6246C50.5058 30.6655 50.5058 30.7065 50.5901 30.7474C50.6323 30.7884 50.6744 30.8294 50.7166 30.8703C50.7587 30.9113 50.8009 30.9113 50.8852 30.9522C50.9274 30.9932 51.0117 30.9932 51.096 30.9932H55.2271C55.3114 30.9932 55.3536 30.9932 55.4379 30.9932C55.5222 30.9932 55.5644 30.9932 55.6065 30.9522C55.6487 30.9522 55.733 30.9113 55.7751 30.8703C55.8173 30.8294 55.8594 30.8294 55.9016 30.7884C55.9438 30.7474 55.9859 30.7065 56.0281 30.6655C56.0702 30.6246 56.1124 30.5836 56.1124 30.5017C56.1545 30.4608 56.1545 30.4198 56.1967 30.3379C56.2388 30.256 56.2388 30.215 56.281 30.1741L58.1779 21H60.0328L58.2201 29.8055C58.2201 29.8874 58.178 29.9693 58.1358 30.0922C58.0936 30.1741 58.0936 30.2969 58.0515 30.3788C58.0093 30.4608 58.0093 30.5836 57.9672 30.6655C57.925 30.7474 57.8829 30.8703 57.8407 30.9522C57.7986 31.0341 57.7564 31.116 57.7143 31.2389C57.6721 31.3208 57.6299 31.4437 57.5456 31.5256C57.5035 31.6075 57.4192 31.6894 57.377 31.8123C57.3349 31.8942 57.2506 31.9761 57.1662 32.099C57.1241 32.1809 57.0398 32.2218 56.9976 32.3038C56.9133 32.3857 56.8712 32.4266 56.7868 32.4676C56.7025 32.5085 56.6604 32.5495 56.5339 32.6314C56.4496 32.6724 56.3653 32.7133 56.281 32.7543C56.1967 32.7952 56.0702 32.8362 55.9438 32.8771C55.8173 32.9181 55.733 32.959 55.6065 32.959C55.4801 33 55.3536 33 55.2271 33C55.1007 33 54.932 33.041 54.8056 33.041H48.2295C48.103 33.041 47.9765 33.041 47.8501 33.041C47.7236 33.041 47.5972 33 47.5128 33C47.4285 33 47.3021 32.959 47.2178 32.9181C47.1335 32.8771 47.0491 32.8362 46.9648 32.7952C46.8805 32.7543 46.8384 32.7133 46.7541 32.6314C46.6698 32.5904 46.6276 32.5085 46.5433 32.4676C46.5011 32.3857 46.459 32.3447 46.3747 32.2628C46.3325 32.1809 46.2904 32.1399 46.2482 32.058C46.2061 31.9761 46.1639 31.8942 46.1217 31.8123C46.0796 31.7304 46.0796 31.6075 46.0374 31.5256C46.0374 31.4437 46.0374 31.3208 45.9953 31.2389C45.9953 31.157 45.9531 31.0341 45.9531 30.9522C45.9531 30.8703 45.9531 30.7474 45.9531 30.6655C45.9531 30.5836 45.9531 30.4608 45.9953 30.3788C45.9953 30.2969 45.9953 30.1741 45.9953 30.0512C45.9953 29.9283 46.0374 29.8464 46.0374 29.7645L47.8922 21.041Z" fill="white"/>
<path d="M63.4896 28.372L60.4966 21H65.5973L67.6629 25.9147L71.5832 21H73.8174L67.7893 28.5358L66.8619 33H62.52L63.4896 28.372Z" fill="white"/>
<path d="M79.4028 21.041H88.5925C88.6768 21.041 88.719 21.041 88.8454 21.041C88.9297 21.041 89.0141 21.041 89.0984 21.0819C89.1827 21.0819 89.267 21.1229 89.3513 21.1229C89.4356 21.1229 89.5199 21.1638 89.6042 21.1638C89.6885 21.2048 89.7307 21.2048 89.815 21.2457C89.8993 21.2867 89.9415 21.3276 90.0258 21.3686C90.1101 21.4096 90.1522 21.4505 90.2365 21.5324C90.2787 21.5734 90.363 21.6553 90.4052 21.6962C90.4473 21.7372 90.4895 21.8191 90.5316 21.8601C90.5738 21.901 90.6159 21.9829 90.6159 22.0239C90.6581 22.0648 90.6581 22.1468 90.7002 22.2287C90.7424 22.3106 90.7424 22.3515 90.7424 22.4334C90.7424 22.5154 90.7845 22.5563 90.7845 22.6382C90.7845 22.7201 90.7845 22.802 90.7845 22.884C90.7845 23.0478 90.7845 23.2526 90.7002 23.4573L90.1101 26.4471C90.0679 26.529 90.0679 26.6109 90.0258 26.7338C89.9836 26.8157 89.9836 26.8976 89.9415 26.9795C89.8993 27.0614 89.8993 27.1433 89.8571 27.2253C89.815 27.3072 89.7728 27.3481 89.7307 27.43C89.6885 27.5119 89.6464 27.5529 89.6042 27.6348C89.5621 27.7167 89.5199 27.7577 89.4778 27.7986C89.4356 27.8396 89.3934 27.9215 89.3091 27.9625C89.267 28.0034 89.1827 28.0853 89.1405 28.1263C89.0562 28.1672 89.0141 28.2082 88.9297 28.2491C88.8454 28.2901 88.8033 28.3311 88.7611 28.372C88.6768 28.413 88.6347 28.4539 88.5504 28.4949C88.466 28.5358 88.3817 28.5768 88.3396 28.5768C88.2553 28.6177 88.1288 28.6177 88.0445 28.6587C87.9602 28.6997 87.8337 28.6997 87.7494 28.6997C87.6651 28.7406 87.5808 28.7406 87.4543 28.7406C87.37 28.7406 87.2436 28.7406 87.1593 28.7406H82.185L81.2998 33H77L79.4028 21.041ZM83.281 23.0068L82.5222 26.7338H85.0937C85.1358 26.7338 85.178 26.7338 85.2201 26.7338C85.2623 26.7338 85.3045 26.6928 85.3045 26.6928C85.3466 26.6928 85.3888 26.6519 85.4309 26.6109C85.4731 26.57 85.5152 26.529 85.5152 26.529C85.5152 26.4881 85.5574 26.4471 85.5995 26.4061C85.6417 26.3652 85.6417 26.3242 85.6838 26.2833C85.6838 26.2423 85.726 26.2014 85.726 26.1604C85.726 26.1195 85.7682 26.0785 85.7682 26.0375L86.274 23.5802C86.274 23.5392 86.274 23.4983 86.274 23.4573C86.274 23.4164 86.274 23.3754 86.274 23.3345C86.274 23.2935 86.274 23.2526 86.2319 23.2526C86.1897 23.2526 86.1897 23.2116 86.1897 23.1706C86.1475 23.1297 86.1054 23.0887 86.0632 23.0478C86.0211 23.0478 86.0211 23.0068 85.9789 23.0068C85.9368 23.0068 85.8946 23.0068 85.8946 23.0068H83.281Z" fill="white"/>
<path d="M102.082 21C102.293 21 102.503 21 102.672 21.041C102.883 21.0819 103.052 21.1229 103.22 21.2048C103.304 21.2457 103.389 21.2867 103.473 21.3276C103.557 21.3686 103.642 21.4096 103.684 21.4505C103.726 21.4915 103.81 21.5734 103.852 21.6553C103.937 21.7372 103.979 21.8191 104.021 21.901C104.063 21.9829 104.105 22.0648 104.148 22.1468C104.19 22.2287 104.19 22.3106 104.232 22.4334C104.274 22.5154 104.274 22.6382 104.316 22.7611C104.316 22.884 104.316 23.0068 104.316 23.1297C104.316 23.2116 104.316 23.2935 104.316 23.4164C104.316 23.4983 104.316 23.6212 104.274 23.7031C104.274 23.785 104.232 23.9079 104.232 24.0307C104.232 24.1536 104.19 24.2765 104.19 24.3584L103.136 29.5188C103.094 29.6416 103.094 29.7645 103.051 29.8874C103.009 30.0102 102.967 30.1331 102.967 30.256C102.925 30.3788 102.925 30.4608 102.841 30.5836C102.799 30.7065 102.756 30.7884 102.714 30.9113C102.672 31.0341 102.63 31.157 102.546 31.2389C102.503 31.3618 102.419 31.4437 102.377 31.5666C102.293 31.6485 102.208 31.7713 102.166 31.8532C102.082 31.9352 102.04 32.0171 101.955 32.099C101.829 32.2218 101.703 32.3447 101.576 32.4266C101.45 32.5085 101.281 32.5904 101.155 32.6724C101.07 32.7133 100.986 32.7543 100.859 32.7952C100.775 32.8362 100.649 32.8771 100.564 32.8771C100.48 32.8771 100.354 32.9181 100.227 32.9181C100.101 32.9181 100.016 32.959 99.8899 32.959H92.5972C92.5129 32.959 92.4285 32.959 92.3021 32.959C92.2178 32.959 92.1335 32.959 92.0492 32.9181C91.9649 32.9181 91.8805 32.8771 91.7962 32.8362C91.7119 32.7952 91.6698 32.7543 91.5855 32.7543C91.5012 32.7133 91.4168 32.6724 91.3325 32.5904C91.2482 32.5495 91.2061 32.4676 91.1218 32.4266C91.0796 32.3447 90.9953 32.3038 90.9531 32.2218C90.911 32.1399 90.8688 32.058 90.8267 31.9761C90.7845 31.8942 90.7845 31.8532 90.7424 31.7713C90.7002 31.6894 90.7002 31.6075 90.6581 31.5256C90.6581 31.4437 90.6159 31.3618 90.6159 31.2799C90.6159 31.198 90.5737 31.116 90.6159 30.9932C90.6159 30.9113 90.6159 30.8294 90.6159 30.7474C90.6159 30.6655 90.6159 30.5836 90.6159 30.5017C90.6159 30.4198 90.6159 30.3379 90.6581 30.256C90.6581 30.1741 90.6581 30.0922 90.7002 30.0102L91.9227 24.1126C91.9649 23.9898 91.9649 23.8669 92.007 23.744C92.0492 23.6212 92.0492 23.4983 92.0913 23.4164C92.1335 23.3345 92.1756 23.2116 92.2178 23.1297C92.2599 23.0478 92.3021 22.9249 92.3442 22.843C92.3864 22.7611 92.4285 22.6382 92.5129 22.5563C92.555 22.4744 92.6393 22.3925 92.6815 22.2696C92.7236 22.1877 92.8079 22.1058 92.8501 22.0239C92.9344 21.942 92.9766 21.901 93.0609 21.8191C93.1452 21.7372 93.1873 21.6962 93.2716 21.6553C93.356 21.6143 93.4403 21.5324 93.4824 21.4915C93.5667 21.4505 93.651 21.4096 93.7353 21.3686C93.8197 21.3276 93.904 21.2867 93.9883 21.2457C94.199 21.1638 94.4098 21.1229 94.6627 21.0819C94.7471 21.0819 94.8735 21.041 95 21.041C95.1264 21.041 95.2529 21 95.3372 21H102.082ZM97.2342 23.0068C97.192 23.0068 97.1077 23.0068 97.0656 23.0068C97.0234 23.0068 96.9812 23.0478 96.9391 23.0478C96.8969 23.0887 96.8548 23.0887 96.8126 23.1297C96.7705 23.1706 96.7283 23.1706 96.6862 23.2116C96.644 23.2526 96.6019 23.2935 96.5597 23.3345C96.5175 23.3754 96.4754 23.4164 96.4332 23.4573C96.4332 23.4983 96.3911 23.5802 96.3489 23.6212C96.3068 23.6621 96.3068 23.744 96.2646 23.785L94.9157 30.4198C94.9157 30.4608 94.9157 30.5017 94.9157 30.5427C94.9157 30.5836 94.9157 30.6246 94.9157 30.6655C94.9157 30.7065 94.9578 30.7474 94.9578 30.7884C95 30.8294 95 30.8703 95 30.8703C95.0421 30.9113 95.0843 30.9113 95.1264 30.9522C95.1686 30.9932 95.2108 30.9932 95.2108 30.9932C95.2951 31.0341 95.3794 31.0751 95.4215 31.0751H97.74C97.7822 31.0751 97.8243 31.0751 97.8665 31.0751C97.9086 31.0751 97.9508 31.0341 97.993 31.0341C98.0351 31.0341 98.0773 30.9932 98.1194 30.9522C98.1616 30.9113 98.2037 30.8703 98.2459 30.8703C98.288 30.8294 98.3302 30.8294 98.3302 30.7884C98.3723 30.7474 98.3723 30.7065 98.4145 30.6655C98.4567 30.5836 98.4988 30.5017 98.4988 30.4198L99.8899 23.7031C99.8899 23.6621 99.8899 23.6212 99.8899 23.5802C99.8899 23.5392 99.8899 23.4983 99.8899 23.4573C99.8899 23.4164 99.8478 23.3754 99.8478 23.3345C99.8478 23.2935 99.8056 23.2526 99.7634 23.2526C99.7213 23.2116 99.7213 23.2116 99.6791 23.1706C99.637 23.1297 99.5948 23.1297 99.5948 23.1297C99.5527 23.1297 99.5105 23.0887 99.4684 23.0887C99.4262 23.0887 99.3841 23.0478 99.3419 23.0478L97.2342 23.0068Z" fill="white"/>
<path d="M116.752 21.041L116.33 23.0068H110.513C110.471 23.0068 110.471 23.0068 110.428 23.0068C110.386 23.0068 110.386 23.0068 110.344 23.0478C110.26 23.0887 110.218 23.0887 110.176 23.1297C110.133 23.1707 110.133 23.1707 110.091 23.2116C110.049 23.2526 110.049 23.2526 110.007 23.2526C109.965 23.2935 109.965 23.2935 109.965 23.3345C109.965 23.3754 109.923 23.3754 109.965 23.4164L109.796 24.2765C109.796 24.3174 109.796 24.3174 109.796 24.3584C109.796 24.3993 109.796 24.3993 109.796 24.3993C109.796 24.4403 109.838 24.4812 109.838 24.5222C109.838 24.5631 109.88 24.5631 109.88 24.6041C109.923 24.6451 109.923 24.6451 109.965 24.686C110.007 24.727 110.049 24.727 110.049 24.727C110.091 24.727 110.091 24.727 110.133 24.727H113.927C114.012 24.727 114.054 24.727 114.138 24.727C114.222 24.727 114.307 24.727 114.391 24.7679C114.475 24.7679 114.56 24.8089 114.644 24.8089C114.728 24.8498 114.813 24.8498 114.855 24.8498C114.939 24.8908 114.981 24.8908 115.065 24.9317C115.15 24.9727 115.192 25.0137 115.276 25.0137C115.318 25.0546 115.403 25.0956 115.487 25.1365C115.571 25.1775 115.614 25.2184 115.656 25.2594C115.698 25.3003 115.74 25.3413 115.782 25.3823C115.824 25.4232 115.866 25.4642 115.866 25.5051C115.909 25.5461 115.909 25.628 115.951 25.6689C115.993 25.7099 115.993 25.7918 116.035 25.8328C116.035 25.8737 116.077 25.9556 116.077 26.0375C116.077 26.1195 116.077 26.1604 116.077 26.2423C116.077 26.3242 116.077 26.3652 116.077 26.4881C116.077 26.57 116.077 26.6519 116.035 26.7338L115.276 30.3788C115.276 30.4198 115.276 30.5017 115.234 30.5427C115.234 30.6246 115.192 30.6655 115.192 30.7065C115.192 30.7474 115.15 30.8294 115.15 30.8703C115.108 30.9522 115.108 30.9932 115.065 31.0341C115.023 31.116 114.981 31.198 114.939 31.2799C114.897 31.3618 114.855 31.4437 114.813 31.4846C114.77 31.5666 114.728 31.6075 114.644 31.6894C114.602 31.7713 114.517 31.8123 114.475 31.8942C114.349 32.0171 114.222 32.1399 114.096 32.2218C113.969 32.3447 113.801 32.4266 113.674 32.5085C113.59 32.5495 113.464 32.5905 113.379 32.6314C113.295 32.6724 113.169 32.7133 113.042 32.7133C112.958 32.7543 112.831 32.7543 112.705 32.7543C112.578 32.7543 112.494 32.7952 112.368 32.7952H104.147L104.527 30.7884H110.302C110.386 30.7884 110.428 30.7884 110.513 30.7474C110.555 30.7474 110.597 30.7065 110.639 30.7065C110.681 30.7065 110.724 30.6655 110.724 30.6655C110.766 30.6655 110.766 30.6246 110.808 30.6246C110.85 30.5836 110.85 30.5836 110.892 30.5427C110.934 30.5017 110.934 30.5017 110.977 30.4608C110.977 30.4198 111.019 30.3788 111.019 30.3788L111.229 29.314C111.229 29.273 111.229 29.273 111.229 29.2321C111.229 29.1911 111.229 29.1911 111.187 29.1502C111.145 29.1092 111.145 29.1092 111.145 29.0683C111.145 29.0273 111.103 29.0273 111.061 28.9864L111.019 28.9454C110.977 28.9044 110.976 28.9044 110.934 28.9044C110.85 28.8635 110.808 28.8635 110.724 28.8635H106.508C106.424 28.8635 106.382 28.8635 106.297 28.8635C106.213 28.8635 106.129 28.8635 106.087 28.8225C106.002 28.8225 105.96 28.7816 105.876 28.7816C105.791 28.7816 105.749 28.7406 105.707 28.7406C105.665 28.7406 105.581 28.6997 105.539 28.6587C105.496 28.6178 105.412 28.6178 105.37 28.5768C105.328 28.5358 105.286 28.4949 105.243 28.4539C105.201 28.413 105.159 28.372 105.117 28.3311C105.033 28.2492 104.991 28.1263 104.948 28.0444C104.906 27.9625 104.864 27.8396 104.864 27.6758C104.864 27.5529 104.822 27.43 104.822 27.3072C104.822 27.1843 104.822 27.0205 104.864 26.8567L105.623 23.1297C105.623 23.0478 105.665 23.0068 105.665 22.9249C105.665 22.843 105.707 22.8021 105.749 22.7201C105.791 22.5563 105.834 22.4335 105.96 22.2696C106.002 22.1877 106.044 22.1468 106.087 22.0649C106.129 21.9829 106.171 21.942 106.213 21.8601C106.255 21.7782 106.34 21.7372 106.382 21.6553C106.424 21.5734 106.508 21.5324 106.55 21.4915C106.592 21.4505 106.635 21.3686 106.719 21.3277C106.761 21.2867 106.845 21.2457 106.888 21.2048C106.972 21.1638 107.014 21.1229 107.098 21.0819C107.183 21.041 107.225 21 107.309 20.9591C107.393 20.9181 107.436 20.9181 107.52 20.8771C107.604 20.8362 107.646 20.8362 107.731 20.7952C107.815 20.7952 107.857 20.7543 107.941 20.7543C108.026 20.7543 108.11 20.7543 108.194 20.7543L116.752 21.041Z" fill="white"/>
<path d="M118.143 21H129.019L128.597 23.0068H125.351L123.286 33H118.944L121.009 23.0068H117.721L118.143 21Z" fill="white"/>
<path d="M130.452 21H140.063L139.641 22.9659H134.456L133.866 25.8328H138.925L138.503 27.7986H133.445L132.77 31.0751H138.082L137.702 33H128.007L130.452 21Z" fill="white"/>
<path d="M141.623 21.041H150.981C151.192 21.041 151.403 21.041 151.613 21.0819C151.824 21.1229 151.993 21.1638 152.119 21.2048C152.246 21.2457 152.414 21.3276 152.541 21.4096C152.667 21.4915 152.752 21.6143 152.836 21.6962C152.878 21.7372 152.92 21.8191 152.92 21.8601C152.962 21.942 152.962 21.9829 153.004 22.0648C153.004 22.1468 153.047 22.2287 153.047 22.3106C153.047 22.3925 153.089 22.4744 153.089 22.5563C153.089 22.6792 153.089 22.843 153.047 23.0068C153.047 23.1706 153.004 23.3345 152.962 23.4983L152.456 25.9556C152.456 25.9966 152.414 26.0785 152.414 26.1195C152.414 26.1604 152.372 26.2423 152.372 26.2833C152.372 26.3242 152.33 26.4061 152.33 26.4471C152.288 26.529 152.288 26.57 152.246 26.6109C152.246 26.6519 152.204 26.7338 152.161 26.7747C152.119 26.8157 152.119 26.8976 152.077 26.9386C152.035 26.9795 151.993 27.0205 151.951 27.1024C151.908 27.1433 151.866 27.2253 151.824 27.2662C151.782 27.3072 151.74 27.3481 151.698 27.3481C151.655 27.3481 151.613 27.3891 151.571 27.43C151.529 27.471 151.487 27.471 151.403 27.5119C151.36 27.5529 151.276 27.5529 151.234 27.5529C151.192 27.5939 151.107 27.5939 151.065 27.5939C150.981 27.5939 150.939 27.6348 150.855 27.6348C150.77 27.6348 150.686 27.6348 150.602 27.6758C150.517 27.7167 150.433 27.6758 150.349 27.6758L151.74 32.8362H146.934L145.965 27.7986H144.574L143.52 32.959H139.178L141.623 21.041ZM145.627 23.0068L145.037 25.8328H147.777C147.819 25.8328 147.862 25.8328 147.904 25.8328C147.946 25.8328 147.988 25.8328 147.988 25.7918C148.03 25.7918 148.072 25.7509 148.072 25.7509C148.115 25.7099 148.115 25.7099 148.157 25.6689C148.157 25.6689 148.199 25.628 148.199 25.587C148.199 25.5461 148.241 25.5051 148.241 25.5051C148.241 25.5051 148.283 25.4232 148.283 25.3823C148.283 25.3413 148.325 25.3003 148.325 25.2594L148.705 23.4573C148.705 23.4164 148.705 23.3754 148.705 23.3345C148.705 23.2935 148.705 23.2526 148.705 23.2526C148.705 23.2116 148.705 23.2116 148.663 23.1706C148.663 23.1297 148.62 23.1297 148.62 23.0887C148.62 23.0887 148.578 23.0478 148.536 23.0478C148.494 23.0478 148.494 23.0068 148.452 23.0068C148.41 23.0068 148.367 23.0068 148.367 23.0068C148.325 23.0068 148.283 23.0068 148.283 23.0068H145.627Z" fill="white"/>
</g>
<defs>
<clipPath id="clip0">
<rect width="126" height="12" fill="white" transform="translate(32 21)"/>
</clipPath>
</defs>
</svg>
