<svg width="23" height="23" viewBox="0 0 23 23" fill="none" xmlns="http://www.w3.org/2000/svg">
<path d="M9.88074 9.42957V13.569L13.6963 11.5173L9.88074 9.42957Z" fill="white"/>
<path d="M16.9899 0.322754H5.66929C2.55568 0.322754 0 2.87843 0 6.01004V17.3306C0 20.4442 2.55568 22.9999 5.66929 22.9999H16.9899C20.1215 22.9999 22.6772 20.4442 22.6772 17.3126V6.01004C22.6772 2.87843 20.1215 0.322754 16.9899 0.322754ZM18.3577 12.2193C18.3577 13.4071 18.2497 14.613 18.2497 14.613C18.2497 14.613 18.1237 15.6208 17.7098 16.0708C17.1699 16.6647 16.5759 16.6647 16.306 16.7007C14.3262 16.8447 11.3566 16.8627 11.3566 16.8627C11.3566 16.8627 7.66704 16.8087 6.53318 16.7007C6.22722 16.6467 5.50731 16.6647 4.96738 16.0708C4.53543 15.6208 4.42745 14.613 4.42745 14.613C4.42745 14.613 4.31946 13.4071 4.31946 12.2193V11.1034C4.31946 9.91556 4.42745 8.70971 4.42745 8.70971C4.42745 8.70971 4.55343 7.70183 4.96738 7.25189C5.50731 6.65796 6.10124 6.63996 6.3712 6.60397C8.36895 6.45999 11.3386 6.44199 11.3386 6.44199C11.3386 6.44199 14.3082 6.45999 16.288 6.60397C16.5579 6.63996 17.1699 6.65796 17.7098 7.23389C18.1417 7.68383 18.2497 8.70971 18.2497 8.70971C18.2497 8.70971 18.3577 9.91556 18.3577 11.1034V12.2193Z" fill="white"/>
</svg>
