<svg fill="none" height="59" viewBox="0 0 231 59" width="231" xmlns="http://www.w3.org/2000/svg"><g fill="#fff"><path d="m17.3319 30.0027-3.8921 20.0391h.0103c3.1344-.3513 5.7073-2.6452 6.3204-5.7417l2.4007-12.1309c.0688-.3513.1446-.6854.2238-1.0195-1.0333-.7957-2.3455-1.2021-3.9472-1.2021-.3823 0-.7508.0207-1.1159.0551z"/><path d="m36.5409 8.9131c-3.031 0-5.6384 2.1527-6.2101 5.1321l-3.5718 18.6372c-.8266-2.0597-1.9805-3.6441-3.4581-4.7463-.0034 0-.0034-.0034-.0069-.0034 1.1849-3.2342 5.0838-27.8887547 5.0838-27.8887547-3.0172 0-5.6073 2.1389247-6.1825 5.0976147l-4.1057 21.14474c-.1067-.0034-.2066-.0103-.3134-.0103-4.2262 0-7.91853 1.5568-11.07009 4.667-3.155 3.1137-5.20783 6.992-6.16535 11.6453-.086108.5511-.196327 1.302-.334101 2.2457-.1377729.9438-.206659 1.8014-.206659 2.5661 0 3.6096 1.00919 6.403 3.02757 8.38 1.87027 1.8255 4.38463 2.7417 7.54993 2.7417 4.6533 0 8.8244-2.3146 12.5202-6.9472l-1.3054 6.403h.0103c3.1447-.3341 5.7279-2.6384 6.3307-5.7452zm-11.2802 30.472c-.0413.434-.1068 1.1091-.1929 2.0218-.7439 3.8232-2.008 7.0196-3.7922 9.589-2.2939 3.3548-5.163 5.0322-8.6005 5.0322-2.442 0-4.27093-.8507-5.47989-2.5488-1.04019-1.488-1.56028-3.4202-1.56028-5.8003 0-.4477.062-1.1469.19288-2.101.12744-.9541.23421-1.6464.31688-2.07.83008-4.1849 2.04937-7.457 3.66476-9.8129 1.94605-2.8037 4.52585-4.3433 7.73945-4.6292.3651-.031.7371-.0517 1.1194-.0517 1.6016 0 2.9139.4064 3.9472 1.2021.5166.3961.9678.8817 1.3433 1.4742.9127 1.4225 1.3708 3.3995 1.3708 5.9242-.0034.7474-.0241 1.3364-.0689 1.7704z"/><path d="m49.2531 38.39c-.3378-2.5775.4626-5.177-.1983-7.7472-.1616-.6242.1175-.9987.8592-1.0574 1.7477-.1322 2.0855.0734 2.1222 1.7844.1175 5.3459.1982 10.6918.2643 16.0378.0221 1.7477-.3304 1.9753-2.0487 1.6155-.6169-.1248-.8739-.3966-.8739-1.0721 0-2.46-.0808-4.9201-.1248-7.3801-.1175-.7196-.1175-1.4539 0-2.1809z"/><path d="m93.7095 47.4286c-.0955-3.4954.1615-6.9908-.0735-10.4936-.044-.6535-.6168-1.5641.1175-2.2617 0-1.006 0-2.0121 0-3.0181-.0073-.2277-.022-.4479-.0146-.6756.0293-.6756-.0294-1.3879-.8886-1.3585-.9252.0294-2.2544-.5654-2.5555.9399-.5874 2.9227-1.6816 5.6985-2.3718 8.8708-.2277-.5141-.3746-.7858-.4553-1.0722-.7417-2.6362-1.454-5.2798-2.203-7.916-.4553-1.5935-1.7551-.6903-2.6583-.8005-.962-.1175-.5434.7711-.5581 1.197-.0514 2.0561-.022 4.1122-.0147 6.1684.0074 3.7451.0441 7.4975.0147 11.2426-.0073.6976.235.8812.8518.8371.7123-.0514 1.454.1469 2.1149-.2717.4553-.514.1909-1.1382.2497-1.711.1468-1.4393-.2864-2.9079.235-4.3252.2276.8886.4185 1.7918.6976 2.6656.3157.9914 1.1749.9033 1.99.9106.7784.0073 1.0428-.3158 1.2557-1.0868.2277-.8445.2497-1.8432 1.0501-2.5849.0734.8592-.1101 1.7845.2644 2.2985.4993.6903.4406.962.0073 1.6229-.4259.6535-.4846 1.7771.0367 2.2911.5287.5287 1.5862.279 2.3646.1322.8885-.1616.5581-1.0281.5434-1.6009zm-8.5917-4.4941c-.0073.1763-.0073.3452-.0073.5214-.0514-.1909-.1028-.3892.0073-.5214z"/><path d="m192.279 37.5666c-.03-2.3792.22-4.7731-.228-7.145.331-.2937.118-.448-.147-.6022-.33-.1909-.602-.2496-.697.235-.279.3745-.676.4113-1.095.3819-.08-.1028-.161-.213-.242-.3158-.022-.3818-.213-.6095-.595-.4846-.389.1321.118.3231.008.4993-.316.4993-.133 1.0574-.155 1.5862-.095 2.0267.162 4.0682-.139 6.0949-.72-.022-1.447-.044-2.166-.0661 0-.8665.044-1.733-.008-2.5995-.102-1.6669.287-3.3559-.213-5.0008-.969-.9473-2.041-.6536-3.128-.2717-.294.3011-.22.6829-.22 1.0354v16.8603c0 .3598-.074.7416.227 1.0354 1.08.3524 2.152.6755 3.114-.2717.338-.5434.33-1.0868.007-1.6376-.183-1.006-.088-2.0194-.007-3.0255.47-.9472.103-1.9606.22-2.9299.786-.3158 1.469.1615 2.196.2864.095.4332.14.8738.154 1.3071-.037-.4406-.081-.8739-.154-1.3071.132 1.7036-.257 3.4293.22 5.1109-.271.984.03 1.5788 1.124 1.6302.103.0074.198.0147.301.022.242.426.213 1.2558.933 1.0355.572-.1763.726-.8298.719-1.4907-.029-3.3192.015-6.6457-.029-9.9723z"/><path d="m172.253 30.5683c-.102-.5434-.235-1.1235-.962-.9473-.668.1542-1.307-.0587-1.96.0073-.705.984-.206 2.0855-.316 3.1283-.154.7123.477 1.3438.191 2.0635-.565.7416.132 1.7256-.455 2.46-.103-.191-.243-.3819-.309-.5875-.609-1.9607-1.204-3.9213-1.799-5.882-.161-.536-.345-1.1088-1.065-.9252-.697.1762-1.373-.0588-2.056-.0074-.55 2.0047-.382 4.0095-.08 6.0215.198.2497-.133.683.293.8519.03.0807.044.1615.03.2496-.793.8372.066 1.8726-.331 2.7538-.426.6755-.22 1.4246-.198 2.1295.088 2.3058-.294 4.619.191 6.9174.962.4553 1.924.4626 2.886 0 .426-1.1896.088-2.4233.198-3.6349.125-1.3438-.257-2.7097.228-4.0315.359 2.1002 1.402 3.9948 1.769 6.1096.316 1.8359.603 1.8799 2.637 1.8652.771-.0073 1.057-.257 1.05-1.0134-.022-2.3645.117-4.7437-.059-7.0936-.081-1.0501.411-2.1369-.169-3.1503.441-.4699.118-.793-.213-1.1088.676-.3378.184-1.0648.507-1.5201-.008-1.5494-.008-3.1062-.008-4.6556zm-5.918 10.8461v.4626c-.037-.1616-.059-.3231 0-.4626z"/><path d="m113.786 32.2134c-.286-1.3732-.8-2.5628-2.467-2.5995-1.821-.0367-3.65-.0147-5.471 0-.382 0-.845-.0441-.889.5507-.146.6683-.051 1.3512-.066 2.0268-.08 2.4747.147 4.9641-.117 7.4387.11 1.5789.11 3.1577 0 4.7291.191.8959.183 1.7845 0 2.6804.125 2.0634.125 2.0634 2.328 2.0634h3.422c2.526 0 3.187-.6756 3.201-3.2384.015-4.0168.044-8.0409.066-12.0577-.205-.5434-.161-1.0648-.007-1.5935zm-2.651 11.529c-.022.0734-.051.1102-.081.1102-.007.2717 0 .536-.022.8077-.132 1.689-1.153 2.3132-2.709 1.6743-.595-.2423-.382-.7784-.382-1.1823-.015-3.1503 0-6.3005.007-9.4508 0-.3672.015-.7344-.022-1.0942-.206-1.9019.529-2.5187 2.313-1.99.61.1836.411.6389.426.9987.081 2.3939-.066 4.8172.294 7.1671.147.9546-.654 1.8798.088 2.739.088.0734.117.1469.088.2203z"/><path d="m133.694 41.6054c0-3.5394.139-7.0863-.081-10.6257-.83-1.1162-1.917-1.5421-3.319-1.3953-1.043.1028-2.1.0074-3.15.0221-1.425.022-2.247.8077-2.255 2.2323-.022 5.0669-.029 10.1338-.022 15.2007 0 1.2263.771 2.0047 2.005 2.0414 1.189.0367 2.386-.0881 3.561.0441 1.374.1542 2.35-.3378 3.121-1.4099.345-2.0341.14-4.0756.14-6.1097zm-3.077.5948c.088.1396.162.2864.22.448-.051 1.0574.088 2.1295-.242 3.1649-.705.6977-1.652.3966-2.357.2791-.646-.1102-.331-1.0942-.331-1.711.015-2.5041.044-5.0008-.132-7.4975-.081-1.197.015-2.416.147-3.6056.139-1.219 1.146-.47 1.74-.6242.558-.1468.977.0294.926.7637-.052.705-.03 4.0242.168 4.8613-.176.4112.059 1.006.074 1.4393-.044.3672.088.7417-.037 1.1088-.404.4039-.161.9033-.176 1.3732z"/><path d="m212.348 46.8706c.007-2.1148-.007-4.2224-.015-6.3372 0-1.8946 0-3.7819 0-5.6764 0-.8812-.007-1.7698-.007-2.651-.022-1.3144.117-2.6215-1.939-2.5407-1.02.044-1.454.1835-1.322 1.3144.045.4039.023.8151.03 1.2263 0 .727-.007 1.4614-.007 2.1884 0 .5801-.008 1.1602-.008 1.7403 0 .514.008 1.0354.008 1.5495v5.5588c.058.7564-.25 1.5421.198 2.2618-.566 1.5861-1.741.771-2.725.6902 0-1.9166.008-3.8405.008-5.7571 0-.5728 0-1.1382 0-1.711 0-1.5347 0-3.0622 0-4.5969-.022-1.1823-.052-2.3719-.052-3.5542 0-.4332 0-.9546-.521-.9399-.822.0294-1.704-.3672-2.475.2423-.345.8225-.345 1.6376 0 2.46 0 .2791-.007.5581-.007.8298-.213.2203-.213.492-.213.7637v12.8875c0 .3158-.029.6462.25.8886.492 1.1455 1.38 1.4613 2.577 1.4025.764-.044 1.491-.0734 2.122-.5434.147.8225.595.2571.933.2056 1.153.448 2.056-.022 2.886-.7857.396-.2937.279-.727.279-1.1162z"/><path d="m71.7603 47.7077c-.235-2.2397-.8959-4.406-1.0794-6.6604-.1616-1.99-.5141-3.9654-.7858-5.9481-.3231-.5213.0074-1.1162-.2129-1.6522-.2791-.7343-.2864-1.5054-.3892-2.2691-.1836-1.4026-1.8799-2.1516-3.1209-1.476-.3672.1983-.2644.492-.3305.7931-.5214 2.2397-.6682 4.5308-.9693 6.7999-.2864.3378.6682.8738-.1836 1.1162-.2056 1.3658-.4112 2.7317-.6168 4.0902-.2203.5287.1175 1.1309-.213 1.6449-.6021 1.3879-.257 2.952-.8077 4.3472-.0514.1322.044.47.0954.4774.8592.0514 1.7257.1688 2.5702.066.6976-.0881.5801-.7857.6315-1.3217.0734-.7711.1395-1.5054 1.2851-1.3953 1.1162.1028.962.8959.9766 1.5715.0074.3965-.2423.8445.3085 1.0281.8812.279 1.8211.3231 2.6803.0367.4553-.1616.2056-.8151.1615-1.2484zm-3.9874-4.4207c-.1248.0735-.3965.0735-.4993-.0147-.2791-.2423-.1322-.6094-.1028-.9032.0514-.4406.1982-.8738.301-1.3144.0588.0073.1175.022.1763.0293.0807.448.1909.8886.2423 1.3365.0441.2937.235.6462-.1175.8665z"/><path d="m153.007 47.7077c-.235-2.2397-.896-4.406-1.08-6.6604-.161-1.99-.514-3.9654-.786-5.9481-.066-.5507.184-1.1455-.213-1.6522-.279-.7343-.286-1.5054-.389-2.2691-.183-1.4026-1.88-2.1516-3.121-1.476-.367.1983-.264.492-.33.7931-.521 2.2397-.668 4.5308-.969 6.7999-.294.3378-.162.7417-.184 1.1162-.206 1.3658-.411 2.7317-.617 4.0902-.396.5067-.139 1.0942-.213 1.6449-.602 1.3879-.257 2.952-.808 4.3472-.051.1322.045.47.096.4774.859.0514 1.726.1688 2.57.066.698-.0881.58-.7857.632-1.3217.073-.7711.139-1.5054 1.285-1.3953 1.116.1028.962.8959.976 1.5715.008.3965-.242.8445.309 1.0281.881.279 1.821.3231 2.68.0367.448-.1616.206-.8151.162-1.2484zm-4.215-4.3693c-.287.0221-.404-.1101-.412-.3892-.022-.6462.133-1.2557.478-2.1809.147.9105.257 1.5347.337 2.1589.045.2864-.139.3965-.403.4112z"/><path d="m228.011 29.9149c-.448 1.5935-1.336 3.1209-.536 4.8687.154.3304-.294.492-.558.6462-.088-.0221-.176-.0514-.264-.0735-.235-.6095-.544-1.1382-.654-1.8431-.191-1.2411.294-2.6657-.756-3.7304-.918-.213-1.836-.4553-2.717.1395.044.5287.051 1.0721.132 1.5935.668 4.0829 2.409 7.9381 2.416 12.1899 0 1.2263.147 2.4894.125 3.7451-.316.4553-.323.9032.007 1.3585 2.401.8959 3.062.4259 3.055-2.0341-.007-2.1589-.257-4.3399.213-6.4842.396-.1395.338-.4846.352-.793.727-3.187 1.447-6.374 2.174-9.561-.999-.5508-1.99-.5214-2.989-.0221z"/></g></svg>