<svg fill="none" height="23" viewBox="0 0 30 23" width="30" xmlns="http://www.w3.org/2000/svg"><g fill="#fff"><path d="m20.1053 11.4313c.0134.0665.02.1331.0134.2063.0199-.0665.0199-.1331-.0134-.2063z"/><path d="m14.979.226562c-14.47357 0-14.726559 1.284908-14.726559 11.337838 0 10.053.252989 11.3379 14.726559 11.3379 14.4736 0 14.7266-1.2849 14.7266-11.3379.0066-10.05293-.253-11.337838-14.7266-11.337838zm4.6936 12.083538-6.6443 3.2089c-.5326.2597-1.1517-.1331-1.1517-.7257v-6.27806c0-.58586.6058-.97866 1.1451-.73233l6.6442 3.06249c.2597.1198.3995.3395.4461.5792.0266.0666.0266.1398.0133.2064-.02.2796-.1664.5393-.4527.6791z"/></g></svg>