<svg fill="none" height="64" viewBox="0 0 75 64" width="75" xmlns="http://www.w3.org/2000/svg" xmlns:xlink="http://www.w3.org/1999/xlink"><clipPath id="a"><path d="m0 0h74.3088v64h-74.3088z"/></clipPath><g clip-path="url(#a)" fill="#fff"><path d="m35.4752 26.081-3.3883 17.4452h.009c2.7286-.3058 4.9685-2.3028 5.5023-4.9985l2.0899-10.5607c.06-.3058.1259-.5967.1949-.8875-.8995-.6927-2.042-1.0465-3.4363-1.0465-.3328 0-.6536.018-.9715.048z"/><path d="m52.1979 7.72114c-2.6387 0-4.9086 1.87406-5.4063 4.46776l-.8126 4.2429-.4348 2.2728-1.8621 9.7092c-.7196-1.7931-1.7241-3.1724-3.0105-4.1319-.003 0-.003-.003-.006-.003 1.0315-2.8156 4.4258-24.2789 4.4258-24.2789-2.6267 0-4.8815 1.86207-5.3823 4.43778l-3.5742 18.40782c-.0929-.003-.1799-.009-.2729-.009-3.6791 0-6.8935 1.3553-9.6371 4.0629-2.7467 2.7107-4.5338 6.087-5.3674 10.138-.0749.4797-.1709 1.1334-.2908 1.955-.12.8216-.1799 1.5682-.1799 2.2339 0 3.1424.8785 5.5742 2.6357 7.2953 1.6281 1.5892 3.8171 2.3868 6.5727 2.3868 4.0509 0 7.6821-2.0149 10.8995-6.0479l-1.1364 5.5742h.009c2.7376-.2909 4.9865-2.2969 5.5112-5.0015l5.3014-27.2984.5817-2.9985zm-9.8201 26.52776c-.036.3778-.093.9655-.1679 1.7601-.6477 3.3283-1.7482 6.1109-3.3014 8.3478-1.997 2.9206-4.4947 4.3808-7.4872 4.3808-2.126 0-3.7182-.7406-4.7707-2.2189-.9055-1.2953-1.3583-2.9775-1.3583-5.0494 0-.3898.054-.9985.1679-1.8291.111-.8306.2039-1.4333.2759-1.8021.7226-3.6432 1.7841-6.4918 3.1904-8.5427 1.6942-2.4408 3.94-3.7812 6.7376-4.03.3179-.027.6417-.045.9746-.045 1.3943 0 2.5367.3538 3.4362 1.0465.4498.3448.8426.7676 1.1695 1.2833.7946 1.2384 1.1934 2.9595 1.1934 5.1574-.003.6507-.021 1.1635-.06 1.5413z"/><path d="m.0989233 59.5742c-.137931-1.0525.1889057-2.114-.0809595-3.1634-.065967-.2549.047976-.4078.3508242-.4318.713642-.054.851572.03.866572.7286.04797 2.1829.08095 4.3658.10794 6.5488.009.7136-.13493.8065-.836581.6596-.251874-.051-.356821-.1619-.356821-.4378 0-1.0045-.032984-2.009-.0509747-3.0135-.047976-.2938-.047976-.5937 0-.8905z"/><path d="m18.2519 63.2654c-.039-1.4273.0659-2.8546-.03-4.2849-.018-.2669-.2519-.6387.048-.9235 0-.4108 0-.8216 0-1.2324-.003-.093-.009-.1829-.006-.2759.012-.2759-.012-.5667-.3629-.5547-.3778.012-.9205-.2309-1.0434.3838-.2399 1.1934-.6867 2.3268-.9686 3.6222-.0929-.2099-.1529-.3209-.1859-.4378-.3028-1.0765-.5937-2.1559-.8995-3.2324-.1859-.6507-.7166-.2818-1.0855-.3268-.3928-.048-.2219.3148-.2278.4887-.021.8396-.009 1.6792-.006 2.5188.003 1.5292.0179 3.0614.006 4.5907-.003.2848.0959.3598.3478.3418.2908-.021.5937.06.8635-.1109.186-.2099.078-.4648.102-.6987.06-.5877-.1169-1.1874.0959-1.7661.093.3628.171.7316.2849 1.0885.1289.4048.4798.3688.8126.3718.3178.003.4258-.129.5127-.4438.093-.3448.102-.7526.4288-1.0555.03.3508-.045.7287.108.9386.2039.2818.1799.3928.003.6626-.1739.2669-.1979.7257.015.9356.2159.2158.6476.1139.9655.0539.3628-.0659.2279-.4198.2219-.6536zm-3.5083-1.8351c-.003.0719-.003.1409-.003.2129-.021-.078-.042-.159.003-.2129z"/><path d="m58.5008 59.2384c-.012-.9716.0899-1.9491-.093-2.9176.1349-.1199.048-.1829-.06-.2459-.1349-.0779-.2458-.1019-.2848.096-.114.1529-.2759.1679-.4468.1559-.033-.042-.066-.0869-.0989-.1289-.009-.1559-.087-.2489-.2429-.1979-.159.054.0479.1319.003.2039-.129.2039-.054.4318-.063.6477-.039.8275.066 1.6611-.057 2.4887-.2938-.009-.5907-.018-.8845-.027 0-.3538.018-.7076-.003-1.0614-.042-.6807.1169-1.3704-.087-2.042-.3958-.3868-.8336-.2669-1.2774-.111-.1199.123-.0899.2789-.0899.4228v6.8846c0 .1469-.03.3028.0929.4228.4408.1439.8786.2758 1.2714-.111.1379-.2219.1349-.4437.003-.6686-.075-.4108-.036-.8246-.003-1.2354.1919-.3868.042-.8006.09-1.1964.3208-.129.5997.0659.8965.1169.039.1769.057.3568.063.5338-.015-.18-.033-.3569-.063-.5338.054.6957-.1049 1.4003.09 2.087-.111.4018.012.6447.4588.6656.0419.003.0809.006.1229.009.0989.174.087.5128.3808.4228.2339-.0719.2969-.3388.2939-.6087-.012-1.3553.006-2.7136-.012-4.0719z"/><path d="m50.3238 56.3808c-.042-.2219-.096-.4588-.3928-.3868-.2729.063-.5337-.024-.8006.003-.2879.4018-.084.8516-.1289 1.2774-.063.2908.1949.5487.0779.8425-.2309.3029.054.7047-.1859 1.0045-.042-.0779-.0989-.1559-.1259-.2398-.2489-.8006-.4918-1.6012-.7346-2.4018-.066-.2189-.141-.4528-.4348-.3778-.2849.0719-.5607-.024-.8396-.003-.2249.8185-.1559 1.6371-.033 2.4587.081.102-.054.2789.12.3478.0119.033.0179.066.0119.102-.3238.3418.027.7646-.1349 1.1244-.1739.2759-.0899.5817-.0809.8696.0359.9415-.12 1.8861.0779 2.8246.3928.1859.7856.1889 1.1784 0 .1739-.4858.036-.9895.081-1.4843.051-.5487-.105-1.1064.0929-1.6461.147.8575.5727 1.6311.7227 2.4947.1289.7496.2458.7676 1.0764.7616.3149-.003.4318-.1049.4288-.4138-.009-.9655.048-1.937-.024-2.8965-.033-.4288.1679-.8726-.0689-1.2864.1799-.1919.0479-.3238-.087-.4528.2759-.1379.075-.4347.2069-.6206-.003-.6327-.003-1.2684-.003-1.9011zm-2.4168 4.4288v.1889c-.015-.066-.024-.1319 0-.1889z"/><path d="m26.4497 57.0525c-.1169-.5608-.3268-1.0465-1.0075-1.0615-.7436-.015-1.4902-.006-2.2339 0-.1559 0-.3448-.018-.3628.2249-.0599.2728-.021.5517-.027.8276-.0329 1.0105.06 2.027-.0479 3.0374.0449.6447.0449 1.2894 0 1.9311.0779.3658.0749.7286 0 1.0944.0509.8426.0509.8426.9505.8426h1.3973c1.0315 0 1.3013-.2758 1.3073-1.3223.006-1.6402.018-3.2834.027-4.9236-.0839-.2218-.0659-.4347-.003-.6506zm-1.0824 4.7076c-.009.03-.021.045-.033.045-.003.1109 0 .2189-.009.3298-.054.6897-.4708.9446-1.1065.6837-.2428-.099-.1559-.3179-.1559-.4828-.006-1.2863 0-2.5727.003-3.859 0-.15.006-.2999-.009-.4468-.0839-.7766.2159-1.0285.9446-.8126.2488.0749.1679.2608.1739.4078.0329.9775-.027 1.967.1199 2.9265.06.3898-.2669.7676.036 1.1185.036.0299.048.0599.036.0899z"/><path d="m34.5787 60.8875c0-1.4452.057-2.8935-.033-4.3388-.3388-.4558-.7826-.6297-1.3553-.5697-.4258.042-.8576.003-1.2864.009-.5817.009-.9175.3298-.9205.9115-.009 2.069-.012 4.138-.009 6.2069 0 .5008.3149.8186.8186.8336.4858.015.9745-.036 1.4543.018.5607.063.9595-.1379 1.2743-.5757.141-.8306.057-1.6642.057-2.4948zm-1.2564.2429c.036.057.066.117.09.1829-.021.4318.036.8696-.099 1.2924-.2878.2848-.6746.1619-.9625.1139-.2638-.045-.1349-.4468-.1349-.6986.006-1.0225.018-2.042-.054-3.0615-.033-.4888.006-.9865.06-1.4723.057-.4977.4678-.1919.7106-.2548.2279-.06.3988.012.3778.3118-.0209.2879-.0119 1.6432.069 1.985-.072.1679.024.4108.03.5877-.018.15.036.3029-.015.4528-.1649.1649-.066.3688-.072.5607z"/><path d="m66.6956 63.0375c.003-.8636-.003-1.7242-.006-2.5877 0-.7737 0-1.5443 0-2.3179 0-.3598-.003-.7226-.003-1.0824-.009-.5368.048-1.0705-.7916-1.0375-.4168.018-.5937.0749-.5397.5367.018.1649.009.3328.012.5008 0 .2968-.003.5967-.003.8935 0 .2369-.003.4738-.003.7107 0 .2098.003.4227.003.6326v2.2699c.024.3088-.102.6297.0809.9235-.2308.6477-.7106.3149-1.1124.2819 0-.7826.003-1.5682.003-2.3508 0-.2339 0-.4648 0-.6987 0-.6267 0-1.2503 0-1.877-.009-.4828-.021-.9686-.021-1.4513 0-.1769 0-.3898-.2129-.3838-.3358.012-.6956-.1499-1.0105.0989-.1409.3359-.1409.6687 0 1.0045 0 .114-.003.2279-.003.3389-.0869.0899-.0869.2009-.0869.3118v5.2624c0 .1289-.012.2638.1019.3628.2009.4678.5637.5967 1.0525.5727.3118-.018.6087-.03.8666-.2219.0599.3358.2428.105.3808.084.4707.1829.8395-.009 1.1784-.3209.1619-.1199.1139-.2968.1139-.4557z"/><path d="m9.28935 63.3793c-.09595-.9145-.36581-1.7991-.44078-2.7196-.06596-.8126-.20989-1.6192-.32084-2.4288-.13193-.2129.003-.4558-.08695-.6747-.11395-.2998-.11694-.6147-.15892-.9265-.07497-.5727-.76762-.8786-1.27436-.6027-.14993.0809-.10795.2009-.13494.3238-.21289.9146-.27286 1.8501-.3958 2.7766-.11694.138.27286.3568-.07496.4558-.08396.5577-.16792 1.1154-.25188 1.6702-.08995.2159.04798.4617-.08695.6716-.24588.5667-.10495 1.2054-.32984 1.7751-.02099.054.01799.1919.03898.1949.35083.021.70465.069 1.04948.027.28486-.0359.23688-.3208.25787-.5397.02998-.3148.05697-.6147.52474-.5697.45577.042.3928.3658.3988.6417.003.1619-.09895.3448.12593.4198.35982.1139.74363.1319 1.09446.015.1859-.066.08395-.3329.06596-.5098zm-1.62818-1.8051c-.05098.03-.16192.03-.2039-.006-.11394-.0989-.05397-.2489-.04198-.3688.02099-.1799.08096-.3568.12294-.5367.02399.003.04798.009.07196.012.03299.1829.07796.3628.09895.5457.01799.1199.09596.2639-.04797.3538z"/><path d="m42.4647 63.3793c-.0959-.9145-.3658-1.7991-.4408-2.7196-.0659-.8126-.2099-1.6192-.3208-2.4288-.027-.2249.075-.4678-.087-.6747-.1139-.2998-.1169-.6147-.1589-.9265-.0749-.5727-.7676-.8786-1.2743-.6027-.15.0809-.108.2009-.135.3238-.2129.9146-.2728 1.8501-.3958 2.7766-.1199.138-.0659.3029-.0749.4558-.084.5577-.168 1.1154-.2519 1.6702-.1619.2069-.057.4467-.087.6716-.2459.5667-.1049 1.2054-.3298 1.7751-.021.054.018.1919.039.1949.3508.021.7046.069 1.0494.027.2849-.0359.2369-.3208.2579-.5397.03-.3148.057-.6147.5248-.5697.4557.042.3928.3658.3988.6417.003.1619-.099.3448.1259.4198.3598.1139.7436.1319 1.0944.015.183-.066.084-.3329.066-.5098zm-1.7211-1.7841c-.117.009-.1649-.045-.1679-.1589-.009-.2639.0539-.5128.1949-.8906.0599.3718.1049.6267.1379.8816.018.1169-.057.1619-.1649.1679z"/><path d="m73.0914 56.1139c-.1829.6507-.5457 1.2744-.2188 1.9881.0629.1349-.12.2008-.2279.2638-.036-.009-.072-.021-.108-.03-.0959-.2488-.2219-.4647-.2668-.7526-.078-.5067.1199-1.0884-.3089-1.5232-.3748-.087-.7496-.1859-1.1094.0569.018.2159.021.4378.0539.6507.2729 1.6672.9835 3.2414.9865 4.9775 0 .5008.06 1.0165.051 1.5293-.1289.1859-.1319.3688.003.5547.9805.3658 1.2504.1739 1.2474-.8306-.003-.8816-.105-1.7721.087-2.6477.1619-.0569.1379-.1979.1439-.3238.2968-1.3014.5907-2.6027.8875-3.9041-.4078-.2249-.8126-.2129-1.2204-.009z"/></g></svg>