<svg width="156" height="43" viewBox="0 0 156 43" fill="none" xmlns="http://www.w3.org/2000/svg">
<path d="M12.7841 22.0289L9.91504 36.7644C9.917 36.7644 9.91896 36.7644 9.92288 36.7644C12.235 36.5063 14.1313 34.8188 14.5843 32.5428L16.3551 23.6225C16.4061 23.3644 16.463 23.118 16.5218 22.8736C15.759 22.289 14.7922 21.9898 13.6116 21.9898C13.3273 21.9898 13.0527 22.0055 12.7841 22.0289Z" fill="white"/>
<path d="M26.9507 6.52108C24.7151 6.52108 22.7933 8.10491 22.3717 10.2949L21.6834 13.879L21.3147 15.7992L19.738 23.9999C19.1281 22.4845 18.277 21.3211 17.1886 20.5096C17.1867 20.5077 17.1847 20.5077 17.1847 20.5057C18.0574 18.13 20.9303 0 20.9303 0C18.7065 0 16.7944 1.5721 16.3709 3.7484L13.343 19.2973C13.2646 19.2953 13.19 19.2895 13.1116 19.2895C9.99352 19.2895 7.27354 20.4334 4.94577 22.7211C2.61997 25.0108 1.10407 27.8637 0.400055 31.2855C0.337301 31.6922 0.254937 32.2417 0.152962 32.9378C0.0509873 33.6319 0 34.2596 0 34.8227C0 37.4781 0.743239 39.5312 2.23168 40.984C3.6103 42.3274 5.46545 42.998 7.80106 42.998C11.2309 42.998 14.3098 41.2949 17.0357 37.8907L16.0728 42.5992C16.0747 42.5992 16.0787 42.5992 16.0806 42.5992C18.4006 42.3528 20.3047 40.6595 20.7499 38.3756L25.2407 15.3162L25.7329 12.784L26.9507 6.52108ZM18.632 28.9313C18.6006 29.252 18.5535 29.7486 18.4908 30.4193C17.9417 33.2311 17.0102 35.5814 15.6943 37.4703C14.0019 39.9379 11.8879 41.1718 9.3503 41.1718C7.54809 41.1718 6.20085 40.548 5.30857 39.2966C4.5418 38.2035 4.15743 36.782 4.15743 35.032C4.15743 34.7035 4.2045 34.1892 4.29863 33.4853C4.39276 32.7833 4.4712 32.2749 4.53395 31.9621C5.1458 28.8844 6.04592 26.4793 7.23628 24.7469C8.67177 22.6859 10.574 21.5518 12.9429 21.3426C13.2116 21.3191 13.4862 21.3035 13.7666 21.3035C14.9471 21.3035 15.9139 21.6027 16.6768 22.1873C17.0572 22.4787 17.3906 22.8365 17.6671 23.2725C18.3398 24.3186 18.6771 25.7715 18.6771 27.631C18.679 28.1765 18.6633 28.6106 18.632 28.9313Z" fill="white"/>
<g clip-path="url(#clip0)">
<path d="M36.829 21.041L35.8173 25.8328H39.1054L40.1171 21.041H44.4169L41.9297 33H37.63L38.6838 27.7986H35.3958L34.3419 33H30L32.445 21.041H36.829Z" fill="white"/>
<path d="M45.8922 21.041L50.2342 21L48.3794 30.0102C48.3794 30.0512 48.3794 30.1331 48.3372 30.1741C48.3372 30.215 48.3372 30.2969 48.3372 30.3379C48.3372 30.3788 48.3372 30.4608 48.3794 30.5017C48.3794 30.5427 48.4215 30.5836 48.4637 30.6246C48.5058 30.6655 48.5058 30.7065 48.5901 30.7474C48.6323 30.7884 48.6744 30.8294 48.7166 30.8703C48.7587 30.9113 48.8009 30.9113 48.8852 30.9522C48.9274 30.9932 49.0117 30.9932 49.096 30.9932H53.2271C53.3114 30.9932 53.3536 30.9932 53.4379 30.9932C53.5222 30.9932 53.5644 30.9932 53.6065 30.9522C53.6487 30.9522 53.733 30.9113 53.7751 30.8703C53.8173 30.8294 53.8594 30.8294 53.9016 30.7884C53.9438 30.7474 53.9859 30.7065 54.0281 30.6655C54.0702 30.6246 54.1124 30.5836 54.1124 30.5017C54.1545 30.4608 54.1545 30.4198 54.1967 30.3379C54.2388 30.256 54.2388 30.215 54.281 30.1741L56.1779 21H58.0328L56.2201 29.8055C56.2201 29.8874 56.178 29.9693 56.1358 30.0922C56.0936 30.1741 56.0936 30.2969 56.0515 30.3788C56.0093 30.4608 56.0093 30.5836 55.9672 30.6655C55.925 30.7474 55.8829 30.8703 55.8407 30.9522C55.7986 31.0341 55.7564 31.116 55.7143 31.2389C55.6721 31.3208 55.6299 31.4437 55.5456 31.5256C55.5035 31.6075 55.4192 31.6894 55.377 31.8123C55.3349 31.8942 55.2506 31.9761 55.1662 32.099C55.1241 32.1809 55.0398 32.2218 54.9976 32.3038C54.9133 32.3857 54.8712 32.4266 54.7868 32.4676C54.7025 32.5085 54.6604 32.5495 54.5339 32.6314C54.4496 32.6724 54.3653 32.7133 54.281 32.7543C54.1967 32.7952 54.0702 32.8362 53.9438 32.8771C53.8173 32.9181 53.733 32.959 53.6065 32.959C53.4801 33 53.3536 33 53.2271 33C53.1007 33 52.932 33.041 52.8056 33.041H46.2295C46.103 33.041 45.9765 33.041 45.8501 33.041C45.7236 33.041 45.5972 33 45.5128 33C45.4285 33 45.3021 32.959 45.2178 32.9181C45.1335 32.8771 45.0491 32.8362 44.9648 32.7952C44.8805 32.7543 44.8384 32.7133 44.7541 32.6314C44.6698 32.5904 44.6276 32.5085 44.5433 32.4676C44.5011 32.3857 44.459 32.3447 44.3747 32.2628C44.3325 32.1809 44.2904 32.1399 44.2482 32.058C44.2061 31.9761 44.1639 31.8942 44.1217 31.8123C44.0796 31.7304 44.0796 31.6075 44.0374 31.5256C44.0374 31.4437 44.0374 31.3208 43.9953 31.2389C43.9953 31.157 43.9531 31.0341 43.9531 30.9522C43.9531 30.8703 43.9531 30.7474 43.9531 30.6655C43.9531 30.5836 43.9531 30.4608 43.9953 30.3788C43.9953 30.2969 43.9953 30.1741 43.9953 30.0512C43.9953 29.9283 44.0374 29.8464 44.0374 29.7645L45.8922 21.041Z" fill="white"/>
<path d="M61.4896 28.372L58.4966 21H63.5973L65.6629 25.9147L69.5832 21H71.8174L65.7893 28.5358L64.8619 33H60.52L61.4896 28.372Z" fill="white"/>
<path d="M82.3139 21.041H91.5036C91.5879 21.041 91.6301 21.041 91.7566 21.041C91.8409 21.041 91.9252 21.041 92.0095 21.0819C92.0938 21.0819 92.1781 21.1229 92.2624 21.1229C92.3467 21.1229 92.431 21.1638 92.5154 21.1638C92.5997 21.2048 92.6418 21.2048 92.7261 21.2457C92.8104 21.2867 92.8526 21.3276 92.9369 21.3686C93.0212 21.4096 93.0634 21.4505 93.1477 21.5324C93.1898 21.5734 93.2741 21.6553 93.3163 21.6962C93.3584 21.7372 93.4006 21.8191 93.4428 21.8601C93.4849 21.901 93.5271 21.9829 93.5271 22.0239C93.5692 22.0648 93.5692 22.1468 93.6114 22.2287C93.6535 22.3106 93.6535 22.3515 93.6535 22.4334C93.6535 22.5154 93.6957 22.5563 93.6957 22.6382C93.6957 22.7201 93.6957 22.802 93.6957 22.884C93.6957 23.0478 93.6957 23.2526 93.6114 23.4573L93.0212 26.4471C92.9791 26.529 92.9791 26.6109 92.9369 26.7338C92.8947 26.8157 92.8947 26.8976 92.8526 26.9795C92.8104 27.0614 92.8104 27.1433 92.7683 27.2253C92.7261 27.3072 92.684 27.3481 92.6418 27.43C92.5997 27.5119 92.5575 27.5529 92.5154 27.6348C92.4732 27.7167 92.431 27.7577 92.3889 27.7986C92.3467 27.8396 92.3046 27.9215 92.2203 27.9625C92.1781 28.0034 92.0938 28.0853 92.0517 28.1263C91.9673 28.1672 91.9252 28.2082 91.8409 28.2491C91.7566 28.2901 91.7144 28.3311 91.6723 28.372C91.588 28.413 91.5458 28.4539 91.4615 28.4949C91.3772 28.5358 91.2929 28.5768 91.2507 28.5768C91.1664 28.6177 91.0399 28.6177 90.9556 28.6587C90.8713 28.6997 90.7449 28.6997 90.6605 28.6997C90.5762 28.7406 90.4919 28.7406 90.3655 28.7406C90.2812 28.7406 90.1547 28.7406 90.0704 28.7406H85.0961L84.2109 33H79.9111L82.3139 21.041ZM86.1922 23.0068L85.4334 26.7338H88.0048C88.047 26.7338 88.0891 26.7338 88.1313 26.7338C88.1734 26.7338 88.2156 26.6928 88.2156 26.6928C88.2577 26.6928 88.2999 26.6519 88.342 26.6109C88.3842 26.57 88.4264 26.529 88.4264 26.529C88.4264 26.4881 88.4685 26.4471 88.5107 26.4061C88.5528 26.3652 88.5528 26.3242 88.595 26.2833C88.595 26.2423 88.6371 26.2014 88.6371 26.1604C88.6371 26.1195 88.6793 26.0785 88.6793 26.0375L89.1851 23.5802C89.1851 23.5392 89.1851 23.4983 89.1851 23.4573C89.1851 23.4164 89.1851 23.3754 89.1851 23.3345C89.1851 23.2935 89.1851 23.2526 89.143 23.2526C89.1008 23.2526 89.1008 23.2116 89.1008 23.1706C89.0587 23.1297 89.0165 23.0887 88.9744 23.0478C88.9322 23.0478 88.9322 23.0068 88.8901 23.0068C88.8479 23.0068 88.8057 23.0068 88.8057 23.0068H86.1922Z" fill="white"/>
<path d="M104.993 21C105.204 21 105.415 21 105.583 21.041C105.794 21.0819 105.963 21.1229 106.131 21.2048C106.216 21.2457 106.3 21.2867 106.384 21.3276C106.468 21.3686 106.553 21.4096 106.595 21.4505C106.637 21.4915 106.721 21.5734 106.764 21.6553C106.848 21.7372 106.89 21.8191 106.932 21.901C106.974 21.9829 107.016 22.0648 107.059 22.1468C107.101 22.2287 107.101 22.3106 107.143 22.4334C107.185 22.5154 107.185 22.6382 107.227 22.7611C107.227 22.884 107.227 23.0068 107.227 23.1297C107.227 23.2116 107.227 23.2935 107.227 23.4164C107.227 23.4983 107.227 23.6212 107.185 23.7031C107.185 23.785 107.143 23.9079 107.143 24.0307C107.143 24.1536 107.101 24.2765 107.101 24.3584L106.047 29.5188C106.005 29.6416 106.005 29.7645 105.963 29.8874C105.92 30.0102 105.878 30.1331 105.878 30.256C105.836 30.3788 105.836 30.4608 105.752 30.5836C105.71 30.7065 105.668 30.7884 105.625 30.9113C105.583 31.0341 105.541 31.157 105.457 31.2389C105.415 31.3618 105.33 31.4437 105.288 31.5666C105.204 31.6485 105.12 31.7713 105.077 31.8532C104.993 31.9352 104.951 32.0171 104.867 32.099C104.74 32.2218 104.614 32.3447 104.487 32.4266C104.361 32.5085 104.192 32.5904 104.066 32.6724C103.981 32.7133 103.897 32.7543 103.771 32.7952C103.686 32.8362 103.56 32.8771 103.476 32.8771C103.391 32.8771 103.265 32.9181 103.138 32.9181C103.012 32.9181 102.928 32.959 102.801 32.959H95.5083C95.424 32.959 95.3397 32.959 95.2132 32.959C95.1289 32.959 95.0446 32.959 94.9603 32.9181C94.876 32.9181 94.7917 32.8771 94.7074 32.8362C94.6231 32.7952 94.5809 32.7543 94.4966 32.7543C94.4123 32.7133 94.328 32.6724 94.2437 32.5904C94.1594 32.5495 94.1172 32.4676 94.0329 32.4266C93.9907 32.3447 93.9064 32.3038 93.8643 32.2218C93.8221 32.1399 93.78 32.058 93.7378 31.9761C93.6957 31.8942 93.6957 31.8532 93.6535 31.7713C93.6113 31.6894 93.6113 31.6075 93.5692 31.5256C93.5692 31.4437 93.527 31.3618 93.527 31.2799C93.527 31.198 93.4849 31.116 93.527 30.9932C93.527 30.9113 93.527 30.8294 93.527 30.7474C93.527 30.6655 93.527 30.5836 93.527 30.5017C93.527 30.4198 93.527 30.3379 93.5692 30.256C93.5692 30.1741 93.5692 30.0922 93.6113 30.0102L94.8338 24.1126C94.876 23.9898 94.876 23.8669 94.9181 23.744C94.9603 23.6212 94.9603 23.4983 95.0024 23.4164C95.0446 23.3345 95.0868 23.2116 95.1289 23.1297C95.1711 23.0478 95.2132 22.9249 95.2554 22.843C95.2975 22.7611 95.3397 22.6382 95.424 22.5563C95.4661 22.4744 95.5505 22.3925 95.5926 22.2696C95.6348 22.1877 95.7191 22.1058 95.7612 22.0239C95.8455 21.942 95.8877 21.901 95.972 21.8191C96.0563 21.7372 96.0985 21.6962 96.1828 21.6553C96.2671 21.6143 96.3514 21.5324 96.3935 21.4915C96.4779 21.4505 96.5622 21.4096 96.6465 21.3686C96.7308 21.3276 96.8151 21.2867 96.8994 21.2457C97.1102 21.1638 97.3209 21.1229 97.5739 21.0819C97.6582 21.0819 97.7847 21.041 97.9111 21.041C98.0376 21.041 98.164 21 98.2483 21H104.993ZM100.145 23.0068C100.103 23.0068 100.019 23.0068 99.9767 23.0068C99.9345 23.0068 99.8924 23.0478 99.8502 23.0478C99.8081 23.0887 99.7659 23.0887 99.7238 23.1297C99.6816 23.1706 99.6395 23.1706 99.5973 23.2116C99.5551 23.2526 99.513 23.2935 99.4708 23.3345C99.4287 23.3754 99.3865 23.4164 99.3444 23.4573C99.3444 23.4983 99.3022 23.5802 99.2601 23.6212C99.2179 23.6621 99.2179 23.744 99.1758 23.785L97.8268 30.4198C97.8268 30.4608 97.8268 30.5017 97.8268 30.5427C97.8268 30.5836 97.8268 30.6246 97.8268 30.6655C97.8268 30.7065 97.869 30.7474 97.869 30.7884C97.9111 30.8294 97.9111 30.8703 97.9111 30.8703C97.9533 30.9113 97.9954 30.9113 98.0376 30.9522C98.0797 30.9932 98.1219 30.9932 98.1219 30.9932C98.2062 31.0341 98.2905 31.0751 98.3327 31.0751H100.651C100.693 31.0751 100.735 31.0751 100.778 31.0751C100.82 31.0751 100.862 31.0341 100.904 31.0341C100.946 31.0341 100.988 30.9932 101.031 30.9522C101.073 30.9113 101.115 30.8703 101.157 30.8703C101.199 30.8294 101.241 30.8294 101.241 30.7884C101.283 30.7474 101.283 30.7065 101.326 30.6655C101.368 30.5836 101.41 30.5017 101.41 30.4198L102.801 23.7031C102.801 23.6621 102.801 23.6212 102.801 23.5802C102.801 23.5392 102.801 23.4983 102.801 23.4573C102.801 23.4164 102.759 23.3754 102.759 23.3345C102.759 23.2935 102.717 23.2526 102.675 23.2526C102.632 23.2116 102.632 23.2116 102.59 23.1706C102.548 23.1297 102.506 23.1297 102.506 23.1297C102.464 23.1297 102.422 23.0887 102.379 23.0887C102.337 23.0887 102.295 23.0478 102.253 23.0478L100.145 23.0068Z" fill="white"/>
<path d="M119.663 21.041L119.241 23.0068H113.424C113.382 23.0068 113.382 23.0068 113.34 23.0068C113.297 23.0068 113.297 23.0068 113.255 23.0478C113.171 23.0887 113.129 23.0887 113.087 23.1297C113.045 23.1707 113.045 23.1707 113.002 23.2116C112.96 23.2526 112.96 23.2526 112.918 23.2526C112.876 23.2935 112.876 23.2935 112.876 23.3345C112.876 23.3754 112.834 23.3754 112.876 23.4164L112.707 24.2765C112.707 24.3174 112.707 24.3174 112.707 24.3584C112.707 24.3993 112.707 24.3993 112.707 24.3993C112.707 24.4403 112.749 24.4812 112.749 24.5222C112.749 24.5631 112.792 24.5631 112.792 24.6041C112.834 24.6451 112.834 24.6451 112.876 24.686C112.918 24.727 112.96 24.727 112.96 24.727C113.002 24.727 113.002 24.727 113.045 24.727H116.838C116.923 24.727 116.965 24.727 117.049 24.727C117.134 24.727 117.218 24.727 117.302 24.7679C117.386 24.7679 117.471 24.8089 117.555 24.8089C117.639 24.8498 117.724 24.8498 117.766 24.8498C117.85 24.8908 117.892 24.8908 117.977 24.9317C118.061 24.9727 118.103 25.0137 118.187 25.0137C118.23 25.0546 118.314 25.0956 118.398 25.1365C118.482 25.1775 118.525 25.2184 118.567 25.2594C118.609 25.3003 118.651 25.3413 118.693 25.3823C118.735 25.4232 118.778 25.4642 118.778 25.5051C118.82 25.5461 118.82 25.628 118.862 25.6689C118.904 25.7099 118.904 25.7918 118.946 25.8328C118.946 25.8737 118.988 25.9556 118.988 26.0375C118.988 26.1195 118.988 26.1604 118.988 26.2423C118.988 26.3242 118.988 26.3652 118.988 26.4881C118.988 26.57 118.988 26.6519 118.946 26.7338L118.187 30.3788C118.187 30.4198 118.187 30.5017 118.145 30.5427C118.145 30.6246 118.103 30.6655 118.103 30.7065C118.103 30.7474 118.061 30.8294 118.061 30.8703C118.019 30.9522 118.019 30.9932 117.977 31.0341C117.934 31.116 117.892 31.198 117.85 31.2799C117.808 31.3618 117.766 31.4437 117.724 31.4846C117.682 31.5666 117.639 31.6075 117.555 31.6894C117.513 31.7713 117.429 31.8123 117.386 31.8942C117.26 32.0171 117.134 32.1399 117.007 32.2218C116.881 32.3447 116.712 32.4266 116.586 32.5085C116.501 32.5495 116.375 32.5905 116.29 32.6314C116.206 32.6724 116.08 32.7133 115.953 32.7133C115.869 32.7543 115.742 32.7543 115.616 32.7543C115.49 32.7543 115.405 32.7952 115.279 32.7952H107.059L107.438 30.7884H113.213C113.297 30.7884 113.34 30.7884 113.424 30.7474C113.466 30.7474 113.508 30.7065 113.55 30.7065C113.593 30.7065 113.635 30.6655 113.635 30.6655C113.677 30.6655 113.677 30.6246 113.719 30.6246C113.761 30.5836 113.761 30.5836 113.803 30.5427C113.845 30.5017 113.845 30.5017 113.888 30.4608C113.888 30.4198 113.93 30.3788 113.93 30.3788L114.141 29.314C114.141 29.273 114.141 29.273 114.141 29.2321C114.141 29.1911 114.141 29.1911 114.098 29.1502C114.056 29.1092 114.056 29.1092 114.056 29.0683C114.056 29.0273 114.014 29.0273 113.972 28.9864L113.93 28.9454C113.888 28.9044 113.888 28.9044 113.845 28.9044C113.761 28.8635 113.719 28.8635 113.635 28.8635H109.419C109.335 28.8635 109.293 28.8635 109.208 28.8635C109.124 28.8635 109.04 28.8635 108.998 28.8225C108.913 28.8225 108.871 28.7816 108.787 28.7816C108.703 28.7816 108.66 28.7406 108.618 28.7406C108.576 28.7406 108.492 28.6997 108.45 28.6587C108.408 28.6178 108.323 28.6178 108.281 28.5768C108.239 28.5358 108.197 28.4949 108.155 28.4539C108.112 28.413 108.07 28.372 108.028 28.3311C107.944 28.2492 107.902 28.1263 107.86 28.0444C107.817 27.9625 107.775 27.8396 107.775 27.6758C107.775 27.5529 107.733 27.43 107.733 27.3072C107.733 27.1843 107.733 27.0205 107.775 26.8567L108.534 23.1297C108.534 23.0478 108.576 23.0068 108.576 22.9249C108.576 22.843 108.618 22.8021 108.66 22.7201C108.703 22.5563 108.745 22.4335 108.871 22.2696C108.913 22.1877 108.956 22.1468 108.998 22.0649C109.04 21.9829 109.082 21.942 109.124 21.8601C109.166 21.7782 109.251 21.7372 109.293 21.6553C109.335 21.5734 109.419 21.5324 109.461 21.4915C109.504 21.4505 109.546 21.3686 109.63 21.3277C109.672 21.2867 109.756 21.2457 109.799 21.2048C109.883 21.1638 109.925 21.1229 110.009 21.0819C110.094 21.041 110.136 21 110.22 20.9591C110.304 20.9181 110.347 20.9181 110.431 20.8771C110.515 20.8362 110.557 20.8362 110.642 20.7952C110.726 20.7952 110.768 20.7543 110.853 20.7543C110.937 20.7543 111.021 20.7543 111.105 20.7543L119.663 21.041Z" fill="white"/>
<path d="M121.054 21H131.93L131.508 23.0068H128.262L126.197 33H121.855L123.92 23.0068H120.632L121.054 21Z" fill="white"/>
<path d="M133.363 21H142.974L142.553 22.9659H137.368L136.777 25.8328H141.836L141.414 27.7986H136.356L135.681 31.0751H140.993L140.614 33H130.918L133.363 21Z" fill="white"/>
<path d="M144.534 21.041H153.892C154.103 21.041 154.314 21.041 154.524 21.0819C154.735 21.1229 154.904 21.1638 155.03 21.2048C155.157 21.2457 155.325 21.3276 155.452 21.4096C155.578 21.4915 155.663 21.6143 155.747 21.6962C155.789 21.7372 155.831 21.8191 155.831 21.8601C155.873 21.942 155.873 21.9829 155.916 22.0648C155.916 22.1468 155.958 22.2287 155.958 22.3106C155.958 22.3925 156 22.4744 156 22.5563C156 22.6792 156 22.843 155.958 23.0068C155.958 23.1706 155.916 23.3345 155.873 23.4983L155.368 25.9556C155.368 25.9966 155.325 26.0785 155.325 26.1195C155.325 26.1604 155.283 26.2423 155.283 26.2833C155.283 26.3242 155.241 26.4061 155.241 26.4471C155.199 26.529 155.199 26.57 155.157 26.6109C155.157 26.6519 155.115 26.7338 155.072 26.7747C155.03 26.8157 155.03 26.8976 154.988 26.9386C154.946 26.9795 154.904 27.0205 154.862 27.1024C154.82 27.1433 154.777 27.2253 154.735 27.2662C154.693 27.3072 154.651 27.3481 154.609 27.3481C154.567 27.3481 154.524 27.3891 154.482 27.43C154.44 27.471 154.398 27.471 154.314 27.5119C154.272 27.5529 154.187 27.5529 154.145 27.5529C154.103 27.5939 154.019 27.5939 153.976 27.5939C153.892 27.5939 153.85 27.6348 153.766 27.6348C153.681 27.6348 153.597 27.6348 153.513 27.6758C153.428 27.7167 153.344 27.6758 153.26 27.6758L154.651 32.8362H149.845L148.876 27.7986H147.485L146.431 32.959H142.089L144.534 21.041ZM148.539 23.0068L147.948 25.8328H150.688C150.731 25.8328 150.773 25.8328 150.815 25.8328C150.857 25.8328 150.899 25.8328 150.899 25.7918C150.941 25.7918 150.983 25.7509 150.983 25.7509C151.026 25.7099 151.026 25.7099 151.068 25.6689C151.068 25.6689 151.11 25.628 151.11 25.587C151.11 25.5461 151.152 25.5051 151.152 25.5051C151.152 25.5051 151.194 25.4232 151.194 25.3823C151.194 25.3413 151.236 25.3003 151.236 25.2594L151.616 23.4573C151.616 23.4164 151.616 23.3754 151.616 23.3345C151.616 23.2935 151.616 23.2526 151.616 23.2526C151.616 23.2116 151.616 23.2116 151.574 23.1706C151.574 23.1297 151.531 23.1297 151.531 23.0887C151.531 23.0887 151.489 23.0478 151.447 23.0478C151.405 23.0478 151.405 23.0068 151.363 23.0068C151.321 23.0068 151.279 23.0068 151.279 23.0068C151.236 23.0068 151.194 23.0068 151.194 23.0068H148.539Z" fill="white"/>
</g>
<defs>
<clipPath id="clip0">
<rect width="126" height="12" fill="white" transform="translate(30 21)"/>
</clipPath>
</defs>
</svg>
