<svg fill="none" height="43" viewBox="0 0 158 43" width="158" xmlns="http://www.w3.org/2000/svg" xmlns:xlink="http://www.w3.org/1999/xlink"><clipPath id="a"><path d="m32 21h126v12h-126z"/></clipPath><g fill="#fff"><path d="m12.7841 22.0289-2.86906 14.7355h.00784c2.31212-.2581 4.20842-1.9456 4.66142-4.2216l1.7708-8.9203c.051-.2581.1079-.5045.1667-.7489-.7628-.5846-1.7296-.8838-2.9102-.8838-.2843 0-.5589.0157-.8275.0391z"/><path d="m26.9507 6.52108c-2.2356 0-4.1574 1.58383-4.579 3.77382l-.6883 3.5841-.3687 1.9202-1.5767 8.2007c-.6099-1.5154-1.461-2.6788-2.5494-3.4903-.0019-.0019-.0039-.0019-.0039-.0039.8727-2.3757 3.7456-20.5057 3.7456-20.5057-2.2238 0-4.1359 1.5721-4.5594 3.7484l-3.0279 15.5489c-.0784-.002-.153-.0078-.2314-.0078-3.11808 0-5.83806 1.1439-8.16583 3.4316-2.3258 2.2897-3.8417 5.1426-4.545715 8.5644-.062754.4067-.145118.9562-.247093 1.6523-.1019747.6941-.152962 1.3218-.152962 1.8849 0 2.6554.743239 4.7085 2.23168 6.1613 1.37862 1.3434 3.23377 2.014 5.56938 2.014 3.42984 0 6.50874-1.7031 9.23464-5.1073l-.9629 4.7085h.0078c2.32-.2464 4.2241-1.9397 4.6693-4.2236l4.4908-23.0594.4922-2.5322zm-8.3187 22.41022c-.0314.3207-.0785.8173-.1412 1.488-.5491 2.8118-1.4806 5.1621-2.7965 7.051-1.6924 2.4676-3.8064 3.7015-6.344 3.7015-1.80221 0-3.14945-.6238-4.04173-1.8752-.76677-1.0931-1.15114-2.5146-1.15114-4.2646 0-.3285.04707-.8428.1412-1.5467.09413-.702.17257-1.2104.23532-1.5232.61185-3.0777 1.51197-5.4828 2.70233-7.2152 1.43549-2.061 3.33772-3.1951 5.70662-3.4043.2687-.0235.5433-.0391.8237-.0391 1.1805 0 2.1473.2992 2.9102.8838.3804.2914.7138.6492.9903 1.0852.6727 1.0461 1.01 2.499 1.01 4.3585.0019.5455-.0138.9796-.0451 1.3003z"/><g clip-path="url(#a)"><path d="m38.829 21.041-1.0117 4.7918h3.2881l1.0117-4.7918h4.2998l-2.4872 11.959h-4.2997l1.0538-5.2014h-3.288l-1.0539 5.2014h-4.3419l2.445-11.959z"/><path d="m47.8922 21.041 4.342-.041-1.8548 9.0102c0 .041 0 .1229-.0422.1639v.1638c0 .0409 0 .1229.0422.1638 0 .041.0421.0819.0843.1229.0421.0409.0421.0819.1264.1228.0422.041.0843.082.1265.1229.0421.041.0843.041.1686.0819.0422.041.1265.041.2108.041h4.1311.2108c.0843 0 .1265 0 .1686-.041.0422 0 .1265-.0409.1686-.0819.0422-.0409.0843-.0409.1265-.0819s.0843-.0819.1265-.1229c.0421-.0409.0843-.0819.0843-.1638.0421-.0409.0421-.0819.0843-.1638.0421-.0819.0421-.1229.0843-.1638l1.8969-9.1741h1.8549l-1.8127 8.8055c0 .0819-.0421.1638-.0843.2867-.0422.0819-.0422.2047-.0843.2866-.0422.082-.0422.2048-.0843.2867-.0422.0819-.0843.2048-.1265.2867-.0421.0819-.0843.1638-.1264.2867-.0422.0819-.0844.2048-.1687.2867-.0421.0819-.1264.1638-.1686.2867-.0421.0819-.1264.1638-.2108.2867-.0421.0819-.1264.1228-.1686.2048-.0843.0819-.1264.1228-.2108.1638-.0843.0409-.1264.0819-.2529.1638-.0843.041-.1686.0819-.2529.1229-.0843.0409-.2108.0819-.3372.1228-.1265.041-.2108.0819-.3373.0819-.1264.041-.2529.041-.3794.041-.1264 0-.2951.041-.4215.041h-6.5761c-.1265 0-.253 0-.3794 0-.1265 0-.2529-.041-.3373-.041-.0843 0-.2107-.041-.295-.0819-.0843-.041-.1687-.0819-.253-.1229-.0843-.0409-.1264-.0819-.2107-.1638-.0843-.041-.1265-.1229-.2108-.1638-.0422-.0819-.0843-.1229-.1686-.2048-.0422-.0819-.0843-.1229-.1265-.2048-.0421-.0819-.0843-.1638-.1265-.2457-.0421-.0819-.0421-.2048-.0843-.2867 0-.0819 0-.2048-.0421-.2867 0-.0819-.0422-.2048-.0422-.2867s0-.2048 0-.2867 0-.2047.0422-.2867c0-.0819 0-.2047 0-.3276s.0421-.2048.0421-.2867z"/><path d="m63.4896 28.372-2.993-7.372h5.1007l2.0656 4.9147 3.9203-4.9147h2.2342l-6.0281 7.5358-.9274 4.4642h-4.3419z"/><path d="m79.4028 21.041h9.1897.2529c.0843 0 .1687 0 .253.0409.0843 0 .1686.041.2529.041s.1686.0409.2529.0409c.0843.041.1265.041.2108.0819.0843.041.1265.0819.2108.1229s.1264.0819.2107.1638c.0422.041.1265.1229.1687.1638.0421.041.0843.1229.1264.1639.0422.0409.0843.1228.0843.1638.0422.0409.0422.1229.0843.2048.0422.0819.0422.1228.0422.2047 0 .082.0421.1229.0421.2048v.2458c0 .1638 0 .3686-.0843.5733l-.5901 2.9898c-.0422.0819-.0422.1638-.0843.2867-.0422.0819-.0422.1638-.0843.2457-.0422.0819-.0422.1638-.0844.2458-.0421.0819-.0843.1228-.1264.2047-.0422.0819-.0843.1229-.1265.2048-.0421.0819-.0843.1229-.1264.1638-.0422.041-.0844.1229-.1687.1639-.0421.0409-.1264.1228-.1686.1638-.0843.0409-.1264.0819-.2108.1228-.0843.041-.1264.082-.1686.1229-.0843.041-.1264.0819-.2107.1229-.0844.0409-.1687.0819-.2108.0819-.0843.0409-.2108.0409-.2951.0819s-.2108.041-.2951.041c-.0843.0409-.1686.0409-.2951.0409-.0843 0-.2107 0-.295 0h-4.9743l-.8852 4.2594h-4.2998zm3.8782 1.9658-.7588 3.727h2.5715.1264c.0422 0 .0844-.041.0844-.041.0421 0 .0843-.0409.1264-.0819.0422-.0409.0843-.0819.0843-.0819 0-.0409.0422-.0819.0843-.1229.0422-.0409.0422-.0819.0843-.1228 0-.041.0422-.0819.0422-.1229 0-.0409.0422-.0819.0422-.1229l.5058-2.4573c0-.041 0-.0819 0-.1229 0-.0409 0-.0819 0-.1228 0-.041 0-.0819-.0421-.0819-.0422 0-.0422-.041-.0422-.082-.0422-.0409-.0843-.0819-.1265-.1228-.0421 0-.0421-.041-.0843-.041-.0421 0-.0843 0-.0843 0z"/><path d="m102.082 21c.211 0 .421 0 .59.041.211.0409.38.0819.548.1638.084.0409.169.0819.253.1228.084.041.169.082.211.1229.042.041.126.1229.168.2048.085.0819.127.1638.169.2457s.084.1638.127.2458c.042.0819.042.1638.084.2866.042.082.042.2048.084.3277v.3686.2867c0 .0819 0 .2048-.042.2867 0 .0819-.042.2048-.042.3276 0 .1229-.042.2458-.042.3277l-1.054 5.1604c-.042.1228-.042.2457-.085.3686-.042.1228-.084.2457-.084.3686-.042.1228-.042.2048-.126.3276-.042.1229-.085.2048-.127.3277-.042.1228-.084.2457-.168.3276-.043.1229-.127.2048-.169.3277-.084.0819-.169.2047-.211.2866-.084.082-.126.1639-.211.2458-.126.1228-.252.2457-.379.3276-.126.0819-.295.1638-.421.2458-.085.0409-.169.0819-.296.1228-.084.041-.21.0819-.295.0819-.084 0-.21.041-.337.041-.126 0-.211.0409-.3371.0409h-7.2927c-.0843 0-.1687 0-.2951 0-.0843 0-.1686 0-.2529-.0409-.0843 0-.1687-.041-.253-.0819-.0843-.041-.1264-.0819-.2107-.0819-.0843-.041-.1687-.0819-.253-.1639-.0843-.0409-.1264-.1228-.2107-.1638-.0422-.0819-.1265-.1228-.1687-.2048-.0421-.0819-.0843-.1638-.1264-.2457-.0422-.0819-.0422-.1229-.0843-.2048-.0422-.0819-.0422-.1638-.0843-.2457 0-.0819-.0422-.1638-.0422-.2457s-.0422-.1639 0-.2867c0-.0819 0-.1638 0-.2458 0-.0819 0-.1638 0-.2457s0-.1638.0422-.2457c0-.0819 0-.1638.0421-.2458l1.2225-5.8976c.0422-.1228.0422-.2457.0843-.3686.0422-.1228.0422-.2457.0843-.3276.0422-.0819.0843-.2048.1265-.2867.0421-.0819.0843-.2048.1264-.2867.0422-.0819.0843-.2048.1687-.2867.0421-.0819.1264-.1638.1686-.2867.0421-.0819.1264-.1638.1686-.2457.0843-.0819.1265-.1229.2108-.2048s.1264-.1229.2107-.1638c.0844-.041.1687-.1229.2108-.1638.0843-.041.1686-.0819.2529-.1229.0844-.041.1687-.0819.253-.1229.2107-.0819.4215-.1228.6744-.1638.0844 0 .2108-.0409.3373-.0409.1264 0 .2529-.041.3372-.041zm-4.8478 2.0068c-.0422 0-.1265 0-.1686 0-.0422 0-.0844.041-.1265.041-.0422.0409-.0843.0409-.1265.0819-.0421.0409-.0843.0409-.1264.0819-.0422.041-.0843.0819-.1265.1229-.0422.0409-.0843.0819-.1265.1228 0 .041-.0421.1229-.0843.1639-.0421.0409-.0421.1228-.0843.1638l-1.3489 6.6348v.1229.1228c0 .041.0421.0819.0421.1229.0422.041.0422.0819.0422.0819.0421.041.0843.041.1264.0819.0422.041.0844.041.0844.041.0843.0409.1686.0819.2107.0819h2.3185.1265c.0421 0 .0843-.041.1265-.041.0421 0 .0843-.0409.1264-.0819.0422-.0409.0843-.0819.1265-.0819.0421-.0409.0843-.0409.0843-.0819.0421-.041.0421-.0819.0843-.1229.0422-.0819.0843-.1638.0843-.2457l1.3911-6.7167c0-.041 0-.0819 0-.1229s0-.0819 0-.1229c0-.0409-.0421-.0819-.0421-.1228 0-.041-.0422-.0819-.0844-.0819-.0421-.041-.0421-.041-.0843-.082-.0421-.0409-.0843-.0409-.0843-.0409-.0421 0-.0843-.041-.1264-.041-.0422 0-.0843-.0409-.1265-.0409z"/><path d="m116.752 21.041-.422 1.9658h-5.817c-.042 0-.042 0-.085 0-.042 0-.042 0-.084.041-.084.0409-.126.0409-.168.0819-.043.041-.043.041-.085.0819-.042.041-.042.041-.084.041-.042.0409-.042.0409-.042.0819 0 .0409-.042.0409 0 .0819l-.169.8601v.0819.0409c0 .041.042.0819.042.1229 0 .0409.042.0409.042.0819.043.041.043.041.085.0819.042.041.084.041.084.041h.084 3.794.211c.084 0 .169 0 .253.0409.084 0 .169.041.253.041.084.0409.169.0409.211.0409.084.041.126.041.21.0819.085.041.127.082.211.082.042.0409.127.0819.211.1228.084.041.127.0819.169.1229.042.0409.084.0819.126.1229.042.0409.084.0819.084.1228.043.041.043.1229.085.1638.042.041.042.1229.084.1639 0 .0409.042.1228.042.2047v.2048.2458c0 .0819 0 .1638-.042.2457l-.759 3.645c0 .041 0 .1229-.042.1639 0 .0819-.042.1228-.042.1638 0 .0409-.042.1229-.042.1638-.042.0819-.042.1229-.085.1638-.042.0819-.084.1639-.126.2458s-.084.1638-.126.2047c-.043.082-.085.1229-.169.2048-.042.0819-.127.1229-.169.2048-.126.1229-.253.2457-.379.3276-.127.1229-.295.2048-.422.2867-.084.041-.21.082-.295.1229-.084.041-.21.0819-.337.0819-.084.041-.211.041-.337.041-.127 0-.211.0409-.337.0409h-8.221l.38-2.0068h5.775c.084 0 .126 0 .211-.041.042 0 .084-.0409.126-.0409s.085-.041.085-.041c.042 0 .042-.0409.084-.0409.042-.041.042-.041.084-.0819.042-.041.042-.041.085-.0819 0-.041.042-.082.042-.082l.21-1.0648c0-.041 0-.041 0-.0819 0-.041 0-.041-.042-.0819-.042-.041-.042-.041-.042-.0819 0-.041-.042-.041-.084-.0819l-.042-.041c-.042-.041-.043-.041-.085-.041-.084-.0409-.126-.0409-.21-.0409h-4.216c-.084 0-.126 0-.211 0-.084 0-.168 0-.21-.041-.085 0-.127-.0409-.211-.0409-.085 0-.127-.041-.169-.041s-.126-.0409-.168-.0819c-.043-.0409-.127-.0409-.169-.0819s-.084-.0819-.127-.1229c-.042-.0409-.084-.0819-.126-.1228-.084-.0819-.126-.2048-.169-.2867-.042-.0819-.084-.2048-.084-.3686 0-.1229-.042-.2458-.042-.3686 0-.1229 0-.2867.042-.4505l.759-3.727c0-.0819.042-.1229.042-.2048s.042-.1228.084-.2048c.042-.1638.085-.2866.211-.4505.042-.0819.084-.1228.127-.2047.042-.082.084-.1229.126-.2048s.127-.1229.169-.2048.126-.1229.168-.1638c.042-.041.085-.1229.169-.1638.042-.041.126-.082.169-.1229.084-.041.126-.0819.21-.1229.085-.0409.127-.0819.211-.1228.084-.041.127-.041.211-.082.084-.0409.126-.0409.211-.0819.084 0 .126-.0409.21-.0409h.253z"/><path d="m118.143 21h10.876l-.422 2.0068h-3.246l-2.065 9.9932h-4.342l2.065-9.9932h-3.288z"/><path d="m130.452 21h9.611l-.422 1.9659h-5.185l-.59 2.8669h5.059l-.422 1.9658h-5.058l-.675 3.2765h5.312l-.38 1.9249h-9.695z"/><path d="m141.623 21.041h9.358c.211 0 .422 0 .632.0409.211.041.38.0819.506.1229.127.0409.295.1228.422.2048.126.0819.211.2047.295.2866.042.041.084.1229.084.1639.042.0819.042.1228.084.2047 0 .082.043.1639.043.2458s.042.1638.042.2457c0 .1229 0 .2867-.042.4505 0 .1638-.043.3277-.085.4915l-.506 2.4573c0 .041-.042.1229-.042.1639 0 .0409-.042.1228-.042.1638 0 .0409-.042.1228-.042.1638-.042.0819-.042.1229-.084.1638 0 .041-.042.1229-.085.1638-.042.041-.042.1229-.084.1639-.042.0409-.084.0819-.126.1638-.043.0409-.085.1229-.127.1638-.042.041-.084.0819-.126.0819-.043 0-.085.041-.127.0819-.042.041-.084.041-.168.0819-.043.041-.127.041-.169.041-.042.041-.127.041-.169.041-.084 0-.126.0409-.21.0409-.085 0-.169 0-.253.041-.085.0409-.169 0-.253 0l1.391 5.1604h-4.806l-.969-5.0376h-1.391l-1.054 5.1604h-4.342zm4.004 1.9658-.59 2.826h2.74.127c.042 0 .084 0 .084-.041.042 0 .084-.0409.084-.0409.043-.041.043-.041.085-.082 0 0 .042-.0409.042-.0819 0-.0409.042-.0819.042-.0819s.042-.0819.042-.1228c0-.041.042-.082.042-.1229l.38-1.8021c0-.0409 0-.0819 0-.1228 0-.041 0-.0819 0-.0819 0-.041 0-.041-.042-.082 0-.0409-.043-.0409-.043-.0819 0 0-.042-.0409-.084-.0409s-.042-.041-.084-.041-.085 0-.085 0c-.042 0-.084 0-.084 0z"/></g></g></svg>