<svg fill="none" height="210" viewBox="0 0 677 210" width="677" xmlns="http://www.w3.org/2000/svg"><g fill="#fff"><path d="m645.339 161.053v18.801c0 18.581-5.842 28.385-17.489 29.429v-10.078c4.212-1.778 6.318-5.718 6.318-11.82h-6.318v-26.332z"/><path d="m676.106 161.053v18.801c0 18.581-5.842 28.385-17.489 29.429v-10.078c4.212-1.778 6.318-5.718 6.318-11.82h-6.318v-26.332z"/><path d="m48.4547 10.1293c-4.2209 1.7864-6.3314 5.746-6.3314 11.8788h6.3314v26.4467h-17.5261v-18.8773c0-18.6747 5.8543-28.52774 17.5261-29.5775"/><path d="m17.5262 10.1254c-4.2349 1.7858-6.3432 5.7439-6.3432 11.8928h6.3249v26.4366h-17.5079v-18.8886c0-18.6676 5.84818-28.51684 17.5262-29.5662"/><path d="m646.073 139.179h5.489v-127.8384h-431.969v5.5118h426.48z"/><path d="m455.681 182.166h-428.5457v-121.3398h-5.4853v126.8068h434.031z"/><path d="m67.1726 41.2729h8.5324v2.3093h-8.5324zm1.7018-5.3884h6.2711c1.4454 0 2.7509.2799 3.8699.8164s2.0049 1.3063 2.611 2.3093c.6295 1.0031.9326 2.1694.9326 3.499s-.3031 2.5192-.9326 3.4989c-.6294 1.0031-1.492 1.7728-2.611 2.3093s-2.4245.8165-3.8699.8165h-6.2711zm6.1313 10.2869c1.1423 0 2.0515-.3265 2.7508-.9564.6994-.6531 1.0258-1.5395 1.0258-2.6825s-.3497-2.0294-1.0258-2.6825c-.6993-.6531-1.6085-.9564-2.7508-.9564h-2.3779v7.2778z"/><path d="m86.0558 47.8044c-1.0957-1.073-1.6318-2.5892-1.6318-4.572v-7.3477h3.7533v7.2311c0 2.1227.8392 3.1957 2.5177 3.1957 1.6786 0 2.4945-1.073 2.4945-3.1957v-7.2311h3.7067v7.3711c0 1.9827-.5362 3.4989-1.6319 4.5719s-2.6343 1.6095-4.5926 1.6095c-1.9815-.0233-3.5202-.5598-4.6159-1.6328zm.3497-15.8852h3.5902l2.541 2.8924h-2.5877zm8.5324 3.9655h.6528c.3031 0 .5595-.1167.7693-.3499.2098-.2333.3031-.5132.3031-.8631 0-.2099-.0233-.3966-.0933-.6065-.0699-.1866-.1632-.3732-.2797-.5132l2.0748-.7464c.4429.5365.6528 1.213.6528 1.9827 0 1.0497-.3264 1.8661-.9559 2.4493-.6294.5831-1.5153.8631-2.6343.8631h-.5129v-2.216z"/><path d="m112.399 35.8845v13.2727h-3.1l-5.852-7.0679v7.0679h-3.6833v-13.2727h3.1003l5.852 7.0679v-7.0679z"/><path d="m123.939 42.2294h3.31v5.505c-.769.5365-1.632.9564-2.611 1.2596-.979.28-1.981.4432-2.96.4432-1.399 0-2.635-.3032-3.754-.8864-1.119-.5831-1.981-1.3995-2.611-2.4492-.629-1.073-.956-2.2627-.956-3.5923s.327-2.5192.956-3.5689c.63-1.0497 1.516-1.8661 2.635-2.4493 1.119-.5831 2.401-.8864 3.799-.8864 1.236 0 2.355.21 3.334.6298.979.4199 1.819 1.0264 2.471 1.7962l-2.378 2.1693c-.909-.9797-1.981-1.4695-3.217-1.4695-1.142 0-2.051.3499-2.751 1.0263-.699.6998-1.049 1.6095-1.049 2.7525 0 .7231.164 1.3996.467 1.9594.326.5832.769 1.0264 1.328 1.353.56.3265 1.213.4898 1.959.4898.722 0 1.398-.1399 2.028-.4432z"/><path d="m133.777 41.2729h8.532v2.3093h-8.532zm1.702-5.3884h6.271c1.445 0 2.751.2799 3.87.8164s2.005 1.3063 2.611 2.3093c.629 1.0031.932 2.1694.932 3.499s-.303 2.5192-.932 3.4989c-.63 1.0031-1.492 1.7728-2.611 2.3093s-2.425.8165-3.87.8165h-6.271zm6.131 10.2869c1.142 0 2.051-.3265 2.751-.9564.699-.6531 1.025-1.5395 1.025-2.6825s-.349-2.0294-1.025-2.6825c-.7-.6531-1.609-.9564-2.751-.9564h-2.378v7.2778z"/><path d="m161.799 46.2649v2.8925h-10.654v-13.2727h10.421v2.8925h-6.691v2.2393h5.898v2.7992h-5.898v2.4259h6.924zm-3.824-11.4765-1.608-1.1197-1.609 1.1197h-2.401l2.494-2.3093h3.078l2.494 2.3093zm1.259-2.286c.467-.2333.676-.4899.676-.7698 0-.1399-.046-.2799-.163-.3732-.116-.0933-.256-.14-.443-.14-.256 0-.559.07-.862.2333l-.56-1.0263c.49-.3033 1.049-.4432 1.725-.4432.56 0 1.026.1399 1.376.4198.349.2799.513.6765.513 1.143 0 .3966-.14.7465-.397 1.0264-.256.3032-.606.5365-1.002.6998z"/><path d="m102.351 77.9657v8.0709h-6.364v-8.1642l-8.579-14.3457h6.714l5.3386 8.9573 5.3384-8.9573h6.178zm-2.028-21.1803h6.108l-6.038 4.8985h-4.3826z"/><path d="m126.736 68.5652h-6.923v-5.0618h20.188v5.0618h-6.877v17.4714h-6.364v-17.4714z"/><path d="m144.594 83.7506c-1.865-1.8194-2.774-4.4086-2.774-7.7676v-12.4796h6.364v12.293c0 3.6155 1.422 5.4117 4.29 5.4117 2.82 0 4.243-1.7962 4.243-5.4117v-12.293h6.271v12.4796c0 3.359-.933 5.9248-2.775 7.7676-1.865 1.8195-4.452 2.7292-7.809 2.7292-3.334 0-5.945-.9097-7.81-2.7292zm15.083-20.2472h1.096c.513 0 .956-.1866 1.305-.5832.35-.3965.537-.863.537-1.4462 0-.3499-.047-.6765-.187-1.0264-.116-.3265-.28-.6064-.466-.863l3.543-1.2596c.746.933 1.119 2.0527 1.119 3.3823 0 1.7728-.536 3.1723-1.608 4.152-1.073.9798-2.565 1.4929-4.476 1.4929h-.863z"/><path d="m190.8 70.1746c.629 1.3996.932 2.9392.932 4.5953 0 2.2393-.536 4.2454-1.632 6.0182-1.072 1.7728-2.564 3.1724-4.476 4.1754-1.888 1.003-4.033 1.5162-6.411 1.5162s-4.522-.5132-6.411-1.5162c-1.888-1.003-3.38-2.4026-4.476-4.1754-1.072-1.7728-1.632-3.7789-1.632-6.0182s.536-4.2454 1.632-6.0182 2.611-3.1723 4.546-4.1754c1.935-1.003 4.126-1.5162 6.574-1.5162 1.003 0 2.192.0933 3.567.2566.933.1166 1.655.1633 2.192.1633.746 0 1.328-.1633 1.771-.5132.42-.3499.653-.8397.653-1.4695 0-.6765-.21-1.283-.653-1.8662l3.497-1.2596c.746 1.0031 1.119 2.146 1.119 3.3823 0 1.213-.303 2.216-.909 3.0325-.606.8164-1.445 1.4229-2.518 1.7961 1.143.9797 2.005 2.1927 2.635 3.5922zm-8.51 10.2403c.933-.5365 1.656-1.283 2.192-2.2627s.792-2.0993.792-3.3589c0-1.2597-.256-2.3793-.792-3.359s-1.259-1.7262-2.192-2.2627c-.932-.5365-1.958-.8164-3.077-.8164-1.142 0-2.168.2799-3.1.8164-.933.5365-1.656 1.283-2.192 2.2627s-.816 2.0993-.816 3.359c0 1.2596.28 2.3792.816 3.3589s1.259 1.7262 2.192 2.2627c.932.5365 1.958.8164 3.1.8164 1.119-.0233 2.168-.2799 3.077-.8164zm-3.8-20.2939c.583-.2799.98-.5598 1.213-.8631.233-.3032.349-.6298.349-1.003 0-.3966-.139-.7231-.396-.9564-.28-.2332-.629-.3266-1.049-.3266-.629 0-1.236.21-1.865.6532l-1.259-2.3793c.49-.3965 1.073-.6765 1.725-.8864.676-.2099 1.352-.3032 2.052-.3032 1.235 0 2.261.3499 3.03 1.0263.793.6765 1.166 1.5862 1.166 2.6825 0 1.8895-1.049 3.3124-3.147 4.2454z"/><path d="m216.49 63.5034v22.5332h-5.245l-9.931-12.013v12.013h-6.248v-22.5332h5.245l9.931 12.0131v-12.0131z"/><path d="m236.096 74.28h5.642v9.3305c-1.283.9331-2.775 1.6329-4.43 2.1227-1.678.4899-3.357.7465-5.012.7465-2.355 0-4.476-.4899-6.364-1.4929-1.889-1.003-3.357-2.3793-4.43-4.1754-1.072-1.7728-1.608-3.8022-1.608-6.0415 0-2.2627.536-4.2687 1.608-6.0415 1.073-1.7728 2.565-3.1724 4.476-4.1755 1.912-1.003 4.057-1.4928 6.458-1.4928 2.098 0 3.986.3499 5.665 1.073 1.678.6998 3.077 1.7261 4.173 3.0557l-4.057 3.6622c-1.515-1.6794-3.357-2.5192-5.478-2.5192-1.935 0-3.474.5832-4.663 1.7495s-1.771 2.7292-1.771 4.6886c0 1.2363.279 2.3559.816 3.3356.536.9797 1.282 1.7495 2.261 2.286.956.5365 2.075.8164 3.31.8164 1.213 0 2.378-.2566 3.451-.7464v-6.1815z"/><path d="m142.286 109.387h-2.984v-2.169h8.696v2.169h-2.961v7.535h-2.751z"/><path d="m153.266 114.331h-1.492v2.589h-2.751v-9.703h4.43c.886 0 1.632.139 2.284.443.653.28 1.143.7 1.492 1.259.35.537.537 1.167.537 1.913 0 .7-.164 1.306-.49 1.843-.326.513-.793.933-1.399 1.236l2.098 3.056h-2.937zm1.306-4.595c-.28-.257-.723-.373-1.283-.373h-1.515v2.845h1.515c.56 0 .98-.116 1.283-.373.279-.233.419-.583.419-1.05 0-.466-.14-.793-.419-1.049z"/><path d="m161.402 116.454c-.816-.443-1.468-1.027-1.935-1.796-.466-.77-.699-1.633-.699-2.59 0-.956.233-1.819.699-2.589.467-.769 1.119-1.376 1.935-1.796s1.749-.653 2.775-.653c1.025 0 1.958.21 2.774.653s1.468 1.027 1.935 1.796c.466.77.699 1.633.699 2.589 0 .957-.233 1.82-.699 2.59-.467.769-1.119 1.376-1.935 1.796-.816.443-1.749.653-2.774.653-1.026 0-1.935-.21-2.775-.653zm4.103-1.96c.397-.233.723-.559.933-.979.233-.42.35-.91.35-1.447 0-.536-.117-1.026-.35-1.446s-.536-.746-.933-.979c-.396-.234-.839-.35-1.328-.35-.49 0-.933.116-1.329.35-.397.233-.723.559-.933.979-.233.42-.349.91-.349 1.446 0 .537.116 1.027.349 1.447s.536.746.933.979c.396.234.839.35 1.329.35.489 0 .932-.116 1.328-.35z"/><path d="m180.239 107.193v9.704h-2.261l-4.29-5.178v5.178h-2.681v-9.704h2.261l4.29 5.179v-5.179z"/><path d="m188.678 111.859h2.425v4.012c-.56.396-1.189.7-1.912.909-.723.21-1.445.327-2.168.327-1.026 0-1.935-.21-2.751-.653-.816-.42-1.445-1.026-1.912-1.796-.466-.77-.699-1.633-.699-2.613 0-.979.233-1.843.699-2.612.467-.77 1.096-1.377 1.935-1.796.816-.42 1.749-.654 2.798-.654.909 0 1.725.164 2.448.467.722.303 1.328.746 1.795 1.306l-1.749 1.586c-.653-.723-1.445-1.073-2.354-1.073-.84 0-1.492.257-2.005.747-.513.513-.77 1.166-.77 2.029 0 .537.117 1.027.35 1.446.233.42.56.747.979.98.42.233.886.35 1.422.35.537 0 1.026-.117 1.492-.327v-2.635z"/><path d="m77.9431 138.217h14.2206v3.849h-14.2206zm2.8441-8.98h10.444c2.4246 0 4.5693.443 6.4343 1.353 1.865.909 3.3335 2.192 4.3595 3.849 1.026 1.656 1.539 3.615 1.539 5.855 0 2.239-.513 4.175-1.539 5.854-1.026 1.657-2.4945 2.94-4.3595 3.849-1.865.91-4.0097 1.353-6.4343 1.353h-10.444zm10.1876 17.121c1.8883 0 3.4037-.536 4.5693-1.609 1.1423-1.073 1.7251-2.566 1.7251-4.455 0-1.89-.5828-3.383-1.7251-4.456s-2.681-1.609-4.5693-1.609h-3.9398v12.129z"/><path d="m121.351 147.058h-9.348l-1.749 4.292h-6.387l9.768-22.113h6.154l9.792 22.113h-6.505zm-1.935-19.617-2.681-1.866-2.681 1.866h-4.009l4.126-3.849h5.105l4.127 3.849zm.117 14.999-2.844-7.068-2.844 7.068zm-1.842-22.114h5.875l3.357 3.942h-4.103z"/><path d="m133.427 149.111c-1.818-1.796-2.727-4.338-2.727-7.604v-12.247h6.247v12.06c0 3.546 1.399 5.319 4.197 5.319 2.774 0 4.173-1.773 4.173-5.319v-12.06h6.154v12.247c0 3.289-.909 5.831-2.727 7.604-1.819 1.796-4.383 2.683-7.647 2.683-3.287 0-5.851-.887-7.67-2.683z"/><path d="m184.855 141.88c.722.933 1.072 2.076 1.072 3.405 0 1.936-.769 3.429-2.331 4.479s-3.8 1.586-6.761 1.586h-11.936v-22.113h11.307c2.821 0 4.965.513 6.434 1.563 1.469 1.049 2.215 2.449 2.215 4.222 0 1.049-.257 2.006-.77 2.822-.512.84-1.235 1.493-2.191 1.983 1.259.443 2.238 1.12 2.961 2.053zm-13.778-8.118v4.269h4.29c2.098 0 3.147-.723 3.147-2.146s-1.049-2.123-3.147-2.123zm8.532 10.824c0-1.493-1.095-2.24-3.287-2.24h-5.245v4.479h5.245c2.192 0 3.287-.747 3.287-2.239z"/><path d="m203.994 147.058h-9.348l-1.748 4.292h-6.388l9.768-22.113h6.155l9.791 22.113h-6.504zm-1.841-4.618-2.844-7.068-2.844 7.068zm-4.569 15.138c-.467-.443-.723-1.026-.723-1.773 0-.746.233-1.329.723-1.796.466-.466 1.072-.699 1.771-.699.723 0 1.306.233 1.772.699.466.467.723 1.073.723 1.796 0 .747-.233 1.33-.723 1.773-.466.443-1.072.653-1.772.653-.699 0-1.282-.21-1.771-.653z"/><path d="m235.024 129.237v22.113h-5.152l-9.768-11.78v11.78h-6.132v-22.113h5.152l9.768 11.78v-11.78z"/><path d="m61.8807 109.34-.0233-6.532-3.1705 5.319h-1.5387l-3.1472-5.132v6.345h-3.2171v-12.2934h2.8674l4.3129 7.0914 4.2196-7.0914h2.8674l.0466 12.2934z"/><path d="m75.7751 106.96h-5.1988l-.9558 2.38h-3.5435l5.4318-12.2934h3.427l5.4552 12.2934h-3.6135zm-4.989-11.383c-.6294-.4198-.9791-.9797-1.0257-1.6795h1.9349c.0467.2333.1865.4199.4663.5599.2797.1399.6294.2099 1.0491.2099.4196 0 .7693-.07 1.049-.2099.2798-.14.4197-.3266.4663-.5599h1.9349c-.0466.6998-.3963 1.2597-1.0257 1.6795-.6295.4199-1.4454.6298-2.4245.6298-.9792 0-1.7951-.2099-2.4246-.6298zm2.6111-4.4786h3.2637l-2.8208 2.1927h-2.3079zm1.3521 13.2956-1.5853-3.942-1.5852 3.942z"/><path d="m83.8178 108.78c-1.0257-.537-1.8183-1.307-2.4245-2.286-.5828-.98-.8859-2.076-.8859-3.313 0-1.236.3031-2.332.8859-3.312.5828-.9797 1.3988-1.7261 2.4245-2.286 1.0258-.5365 2.1914-.8164 3.4736-.8164 1.119 0 2.1448.2099 3.0307.6065.9092.3965 1.6552.9797 2.238 1.7261l-2.2147 2.0058c-.7926-.956-1.7718-1.4459-2.8908-1.4459-.6761 0-1.2589.1399-1.7951.4429-.5128.304-.9325.7-1.2122 1.237-.2565.559-.3963 1.166-.3963 1.866 0 .699.1398 1.306.4196 1.842.2797.537.6994.957 1.2123 1.237.5128.303 1.119.443 1.795.443 1.1423 0 2.0982-.49 2.8908-1.446l2.2147 2.006c-.6061.746-1.3521 1.329-2.238 1.726-.9092.396-1.9117.606-3.0307.606-1.3055-.023-2.4711-.303-3.4969-.839z"/><path d="m103.983 104.885-1.305 1.399v3.079h-3.4505v-12.2927h3.4505v5.1087l4.756-5.1087h3.823l-5.012 5.4587 5.292 6.858h-4.033z"/><path d="m122.33 106.657v2.683h-9.861v-12.2934h9.652v2.6826h-6.202v2.0758h5.432v2.613h-5.455v2.239zm-5.991 6.158c-.256-.256-.396-.583-.396-.979 0-.42.14-.747.396-1.004.256-.256.606-.396 1.002-.396.397 0 .723.14 1.003.396.256.257.396.584.396 1.004 0 .419-.14.746-.396.979-.257.257-.583.373-1.003.373-.419 0-.746-.14-1.002-.373z"/><path d="m126.876 99.7991h-3.776v-2.7525h11.003v2.7525h-3.753v9.5409h-3.474z"/></g></svg>