<svg width="677" height="210" viewBox="0 0 677 210" fill="none" xmlns="http://www.w3.org/2000/svg">
<path d="M645.339 161.053V179.854C645.339 198.435 639.497 208.239 627.85 209.283V199.205C632.062 197.427 634.168 193.487 634.168 187.385H627.85V161.053H645.339Z" fill="white"/>
<path d="M676.106 161.053V179.854C676.106 198.435 670.264 208.239 658.617 209.283V199.205C662.829 197.427 664.935 193.487 664.935 187.385H658.617V161.053H676.106Z" fill="white"/>
<path d="M48.4547 10.1293C44.2338 11.9157 42.1233 15.8753 42.1233 22.0081H48.4547V48.4548H30.9286V29.5775C30.9286 10.9028 36.7829 1.04976 48.4547 0" fill="white"/>
<path d="M17.5262 10.1254C13.2913 11.9112 11.183 15.8693 11.183 22.0182H17.5079V48.4548H0V29.5662C0 10.8986 5.84818 1.04936 17.5262 0" fill="white"/>
<path d="M646.073 139.179H651.562V11.3406H219.593V16.8524H646.073V139.179Z" fill="white"/>
<path d="M455.681 182.166H27.1353V60.8262H21.65V187.633H455.681V182.166Z" fill="white"/>
<path d="M67.1726 41.2729H75.705V43.5822H67.1726V41.2729ZM68.8744 35.8845H75.1455C76.5909 35.8845 77.8964 36.1644 79.0154 36.7009C80.1344 37.2374 81.0203 38.0072 81.6264 39.0102C82.2559 40.0133 82.559 41.1796 82.559 42.5092C82.559 43.8388 82.2559 45.0284 81.6264 46.0081C80.997 47.0112 80.1344 47.7809 79.0154 48.3174C77.8964 48.8539 76.5909 49.1339 75.1455 49.1339H68.8744V35.8845ZM75.0057 46.1714C76.148 46.1714 77.0572 45.8449 77.7565 45.215C78.4559 44.5619 78.7823 43.6755 78.7823 42.5325C78.7823 41.3895 78.4326 40.5031 77.7565 39.85C77.0572 39.1969 76.148 38.8936 75.0057 38.8936H72.6278V46.1714H75.0057Z" fill="white"/>
<path d="M86.0558 47.8044C84.9601 46.7314 84.424 45.2152 84.424 43.2324V35.8847H88.1773V43.1158C88.1773 45.2385 89.0165 46.3115 90.695 46.3115C92.3736 46.3115 93.1895 45.2385 93.1895 43.1158V35.8847H96.8962V43.2558C96.8962 45.2385 96.36 46.7547 95.2643 47.8277C94.1686 48.9007 92.63 49.4372 90.6717 49.4372C88.6902 49.4139 87.1515 48.8774 86.0558 47.8044ZM86.4055 31.9192H89.9957L92.5367 34.8116H89.949L86.4055 31.9192ZM94.9379 35.8847H95.5907C95.8938 35.8847 96.1502 35.768 96.36 35.5348C96.5698 35.3015 96.6631 35.0216 96.6631 34.6717C96.6631 34.4618 96.6398 34.2751 96.5698 34.0652C96.4999 33.8786 96.4066 33.692 96.2901 33.552L98.3649 32.8056C98.8078 33.3421 99.0177 34.0186 99.0177 34.7883C99.0177 35.838 98.6913 36.6544 98.0618 37.2376C97.4324 37.8207 96.5465 38.1007 95.4275 38.1007H94.9146V35.8847H94.9379Z" fill="white"/>
<path d="M112.399 35.8845V49.1572H109.299L103.447 42.0893V49.1572H99.7637V35.8845H102.864L108.716 42.9524V35.8845H112.399Z" fill="white"/>
<path d="M123.939 42.2294H127.249V47.7344C126.48 48.2709 125.617 48.6908 124.638 48.994C123.659 49.274 122.657 49.4372 121.678 49.4372C120.279 49.4372 119.043 49.134 117.924 48.5508C116.805 47.9677 115.943 47.1513 115.313 46.1016C114.684 45.0286 114.357 43.8389 114.357 42.5093C114.357 41.1797 114.684 39.9901 115.313 38.9404C115.943 37.8907 116.829 37.0743 117.948 36.4911C119.067 35.908 120.349 35.6047 121.747 35.6047C122.983 35.6047 124.102 35.8147 125.081 36.2345C126.06 36.6544 126.9 37.2609 127.552 38.0307L125.174 40.2C124.265 39.2203 123.193 38.7305 121.957 38.7305C120.815 38.7305 119.906 39.0804 119.206 39.7568C118.507 40.4566 118.157 41.3663 118.157 42.5093C118.157 43.2324 118.321 43.9089 118.624 44.4687C118.95 45.0519 119.393 45.4951 119.952 45.8217C120.512 46.1482 121.165 46.3115 121.911 46.3115C122.633 46.3115 123.309 46.1716 123.939 45.8683V42.2294Z" fill="white"/>
<path d="M133.777 41.2729H142.309V43.5822H133.777V41.2729ZM135.479 35.8845H141.75C143.195 35.8845 144.501 36.1644 145.62 36.7009C146.739 37.2374 147.625 38.0072 148.231 39.0102C148.86 40.0133 149.163 41.1796 149.163 42.5092C149.163 43.8388 148.86 45.0284 148.231 46.0081C147.601 47.0112 146.739 47.7809 145.62 48.3174C144.501 48.8539 143.195 49.1339 141.75 49.1339H135.479V35.8845ZM141.61 46.1714C142.752 46.1714 143.661 45.8449 144.361 45.215C145.06 44.5619 145.386 43.6755 145.386 42.5325C145.386 41.3895 145.037 40.5031 144.361 39.85C143.661 39.1969 142.752 38.8936 141.61 38.8936H139.232V46.1714H141.61Z" fill="white"/>
<path d="M161.799 46.2649V49.1574H151.145V35.8847H161.566V38.7772H154.875V41.0165H160.773V43.8157H154.875V46.2416H161.799V46.2649ZM157.975 34.7884L156.367 33.6687L154.758 34.7884H152.357L154.851 32.4791H157.929L160.423 34.7884H157.975ZM159.234 32.5024C159.701 32.2691 159.91 32.0125 159.91 31.7326C159.91 31.5927 159.864 31.4527 159.747 31.3594C159.631 31.2661 159.491 31.2194 159.304 31.2194C159.048 31.2194 158.745 31.2894 158.442 31.4527L157.882 30.4264C158.372 30.1231 158.931 29.9832 159.607 29.9832C160.167 29.9832 160.633 30.1231 160.983 30.403C161.332 30.6829 161.496 31.0795 161.496 31.546C161.496 31.9426 161.356 32.2925 161.099 32.5724C160.843 32.8756 160.493 33.1089 160.097 33.2722L159.234 32.5024Z" fill="white"/>
<path d="M102.351 77.9657V86.0366H95.987V77.8724L87.408 63.5267H94.122L99.4606 72.484L104.799 63.5267H110.977L102.351 77.9657ZM100.323 56.7854H106.431L100.393 61.6839H96.0104L100.323 56.7854Z" fill="white"/>
<path d="M126.736 68.5652H119.813V63.5034H140.001V68.5652H133.124V86.0366H126.76V68.5652H126.736Z" fill="white"/>
<path d="M144.594 83.7506C142.729 81.9312 141.82 79.342 141.82 75.983V63.5034H148.184V75.7964C148.184 79.4119 149.606 81.2081 152.474 81.2081C155.294 81.2081 156.717 79.4119 156.717 75.7964V63.5034H162.988V75.983C162.988 79.342 162.055 81.9078 160.213 83.7506C158.348 85.5701 155.761 86.4798 152.404 86.4798C149.07 86.4798 146.459 85.5701 144.594 83.7506ZM159.677 63.5034H160.773C161.286 63.5034 161.729 63.3168 162.078 62.9202C162.428 62.5237 162.615 62.0572 162.615 61.474C162.615 61.1241 162.568 60.7975 162.428 60.4476C162.312 60.1211 162.148 59.8412 161.962 59.5846L165.505 58.325C166.251 59.258 166.624 60.3777 166.624 61.7073C166.624 63.4801 166.088 64.8796 165.016 65.8593C163.943 66.8391 162.451 67.3522 160.54 67.3522H159.677V63.5034Z" fill="white"/>
<path d="M190.8 70.1746C191.429 71.5742 191.732 73.1138 191.732 74.7699C191.732 77.0092 191.196 79.0153 190.1 80.7881C189.028 82.5609 187.536 83.9605 185.624 84.9635C183.736 85.9665 181.591 86.4797 179.213 86.4797C176.835 86.4797 174.691 85.9665 172.802 84.9635C170.914 83.9605 169.422 82.5609 168.326 80.7881C167.254 79.0153 166.694 77.0092 166.694 74.7699C166.694 72.5306 167.23 70.5245 168.326 68.7517C169.422 66.9789 170.937 65.5794 172.872 64.5763C174.807 63.5733 176.998 63.0601 179.446 63.0601C180.449 63.0601 181.638 63.1534 183.013 63.3167C183.946 63.4333 184.668 63.48 185.205 63.48C185.951 63.48 186.533 63.3167 186.976 62.9668C187.396 62.6169 187.629 62.1271 187.629 61.4973C187.629 60.8208 187.419 60.2143 186.976 59.6311L190.473 58.3715C191.219 59.3746 191.592 60.5175 191.592 61.7538C191.592 62.9668 191.289 63.9698 190.683 64.7863C190.077 65.6027 189.238 66.2092 188.165 66.5824C189.308 67.5621 190.17 68.7751 190.8 70.1746ZM182.29 80.4149C183.223 79.8784 183.946 79.1319 184.482 78.1522C185.018 77.1725 185.274 76.0529 185.274 74.7933C185.274 73.5336 185.018 72.414 184.482 71.4343C183.946 70.4546 183.223 69.7081 182.29 69.1716C181.358 68.6351 180.332 68.3552 179.213 68.3552C178.071 68.3552 177.045 68.6351 176.113 69.1716C175.18 69.7081 174.457 70.4546 173.921 71.4343C173.385 72.414 173.105 73.5336 173.105 74.7933C173.105 76.0529 173.385 77.1725 173.921 78.1522C174.457 79.1319 175.18 79.8784 176.113 80.4149C177.045 80.9514 178.071 81.2313 179.213 81.2313C180.332 81.208 181.381 80.9514 182.29 80.4149ZM178.49 60.121C179.073 59.8411 179.47 59.5612 179.703 59.2579C179.936 58.9547 180.052 58.6281 180.052 58.2549C180.052 57.8583 179.913 57.5318 179.656 57.2985C179.376 57.0653 179.027 56.9719 178.607 56.9719C177.978 56.9719 177.371 57.1819 176.742 57.6251L175.483 55.2458C175.973 54.8493 176.556 54.5693 177.208 54.3594C177.884 54.1495 178.56 54.0562 179.26 54.0562C180.495 54.0562 181.521 54.4061 182.29 55.0825C183.083 55.759 183.456 56.6687 183.456 57.765C183.456 59.6545 182.407 61.0774 180.309 62.0104L178.49 60.121Z" fill="white"/>
<path d="M216.49 63.5034V86.0366H211.245L201.314 74.0236V86.0366H195.066V63.5034H200.311L210.242 75.5165V63.5034H216.49Z" fill="white"/>
<path d="M236.096 74.28H241.738V83.6105C240.455 84.5436 238.963 85.2434 237.308 85.7332C235.63 86.2231 233.951 86.4797 232.296 86.4797C229.941 86.4797 227.82 85.9898 225.932 84.9868C224.043 83.9838 222.575 82.6075 221.502 80.8114C220.43 79.0386 219.894 77.0092 219.894 74.7699C219.894 72.5072 220.43 70.5012 221.502 68.7284C222.575 66.9556 224.067 65.556 225.978 64.5529C227.89 63.5499 230.035 63.0601 232.436 63.0601C234.534 63.0601 236.422 63.41 238.101 64.1331C239.779 64.8329 241.178 65.8592 242.274 67.1888L238.217 70.851C236.702 69.1716 234.86 68.3318 232.739 68.3318C230.804 68.3318 229.265 68.915 228.076 70.0813C226.887 71.2476 226.305 72.8105 226.305 74.7699C226.305 76.0062 226.584 77.1258 227.121 78.1055C227.657 79.0852 228.403 79.855 229.382 80.3915C230.338 80.928 231.457 81.2079 232.692 81.2079C233.905 81.2079 235.07 80.9513 236.143 80.4615V74.28H236.096Z" fill="white"/>
<path d="M142.286 109.387H139.302V107.218H147.998V109.387H145.037V116.922H142.286V109.387Z" fill="white"/>
<path d="M153.266 114.331H151.774V116.92H149.023V107.217H153.453C154.339 107.217 155.085 107.356 155.737 107.66C156.39 107.94 156.88 108.36 157.229 108.919C157.579 109.456 157.766 110.086 157.766 110.832C157.766 111.532 157.602 112.138 157.276 112.675C156.95 113.188 156.483 113.608 155.877 113.911L157.975 116.967H155.038L153.266 114.331ZM154.572 109.736C154.292 109.479 153.849 109.363 153.289 109.363H151.774V112.208H153.289C153.849 112.208 154.269 112.092 154.572 111.835C154.851 111.602 154.991 111.252 154.991 110.785C154.991 110.319 154.851 109.992 154.572 109.736Z" fill="white"/>
<path d="M161.402 116.454C160.586 116.011 159.934 115.427 159.467 114.658C159.001 113.888 158.768 113.025 158.768 112.068C158.768 111.112 159.001 110.249 159.467 109.479C159.934 108.71 160.586 108.103 161.402 107.683C162.218 107.263 163.151 107.03 164.177 107.03C165.202 107.03 166.135 107.24 166.951 107.683C167.767 108.126 168.419 108.71 168.886 109.479C169.352 110.249 169.585 111.112 169.585 112.068C169.585 113.025 169.352 113.888 168.886 114.658C168.419 115.427 167.767 116.034 166.951 116.454C166.135 116.897 165.202 117.107 164.177 117.107C163.151 117.107 162.242 116.897 161.402 116.454ZM165.505 114.494C165.902 114.261 166.228 113.935 166.438 113.515C166.671 113.095 166.788 112.605 166.788 112.068C166.788 111.532 166.671 111.042 166.438 110.622C166.205 110.202 165.902 109.876 165.505 109.643C165.109 109.409 164.666 109.293 164.177 109.293C163.687 109.293 163.244 109.409 162.848 109.643C162.451 109.876 162.125 110.202 161.915 110.622C161.682 111.042 161.566 111.532 161.566 112.068C161.566 112.605 161.682 113.095 161.915 113.515C162.148 113.935 162.451 114.261 162.848 114.494C163.244 114.728 163.687 114.844 164.177 114.844C164.666 114.844 165.109 114.728 165.505 114.494Z" fill="white"/>
<path d="M180.239 107.193V116.897H177.978L173.688 111.719V116.897H171.007V107.193H173.268L177.558 112.372V107.193H180.239Z" fill="white"/>
<path d="M188.678 111.859H191.103V115.871C190.543 116.267 189.914 116.571 189.191 116.78C188.468 116.99 187.746 117.107 187.023 117.107C185.997 117.107 185.088 116.897 184.272 116.454C183.456 116.034 182.827 115.428 182.36 114.658C181.894 113.888 181.661 113.025 181.661 112.045C181.661 111.066 181.894 110.202 182.36 109.433C182.827 108.663 183.456 108.056 184.295 107.637C185.111 107.217 186.044 106.983 187.093 106.983C188.002 106.983 188.818 107.147 189.541 107.45C190.263 107.753 190.869 108.196 191.336 108.756L189.587 110.342C188.934 109.619 188.142 109.269 187.233 109.269C186.393 109.269 185.741 109.526 185.228 110.016C184.715 110.529 184.458 111.182 184.458 112.045C184.458 112.582 184.575 113.072 184.808 113.491C185.041 113.911 185.368 114.238 185.787 114.471C186.207 114.704 186.673 114.821 187.209 114.821C187.746 114.821 188.235 114.704 188.701 114.494V111.859H188.678Z" fill="white"/>
<path d="M77.9431 138.217H92.1637V142.066H77.9431V138.217ZM80.7872 129.237H91.2312C93.6558 129.237 95.8005 129.68 97.6655 130.59C99.5305 131.499 100.999 132.782 102.025 134.439C103.051 136.095 103.564 138.054 103.564 140.294C103.564 142.533 103.051 144.469 102.025 146.148C100.999 147.805 99.5305 149.088 97.6655 149.997C95.8005 150.907 93.6558 151.35 91.2312 151.35H80.7872V129.237ZM90.9748 146.358C92.8631 146.358 94.3785 145.822 95.5441 144.749C96.6864 143.676 97.2692 142.183 97.2692 140.294C97.2692 138.404 96.6864 136.911 95.5441 135.838C94.4018 134.765 92.8631 134.229 90.9748 134.229H87.035V146.358H90.9748Z" fill="white"/>
<path d="M121.351 147.058H112.003L110.254 151.35H103.867L113.635 129.237H119.789L129.581 151.35H123.076L121.351 147.058ZM119.416 127.441L116.735 125.575L114.054 127.441H110.045L114.171 123.592H119.276L123.403 127.441H119.416ZM119.533 142.44L116.689 135.372L113.845 142.44H119.533ZM117.691 120.326H123.566L126.923 124.268H122.82L117.691 120.326Z" fill="white"/>
<path d="M133.427 149.111C131.609 147.315 130.7 144.773 130.7 141.507V129.26H136.947V141.32C136.947 144.866 138.346 146.639 141.144 146.639C143.918 146.639 145.317 144.866 145.317 141.32V129.26H151.471V141.507C151.471 144.796 150.562 147.338 148.744 149.111C146.925 150.907 144.361 151.794 141.097 151.794C137.81 151.794 135.246 150.907 133.427 149.111Z" fill="white"/>
<path d="M184.855 141.88C185.577 142.813 185.927 143.956 185.927 145.285C185.927 147.221 185.158 148.714 183.596 149.764C182.034 150.814 179.796 151.35 176.835 151.35H164.899V129.237H176.206C179.027 129.237 181.171 129.75 182.64 130.8C184.109 131.849 184.855 133.249 184.855 135.022C184.855 136.071 184.598 137.028 184.085 137.844C183.573 138.684 182.85 139.337 181.894 139.827C183.153 140.27 184.132 140.947 184.855 141.88ZM171.077 133.762V138.031H175.367C177.465 138.031 178.514 137.308 178.514 135.885C178.514 134.462 177.465 133.762 175.367 133.762H171.077ZM179.609 144.586C179.609 143.093 178.514 142.346 176.322 142.346H171.077V146.825H176.322C178.514 146.825 179.609 146.078 179.609 144.586Z" fill="white"/>
<path d="M203.994 147.058H194.646L192.898 151.35H186.51L196.278 129.237H202.433L212.224 151.35H205.72L203.994 147.058ZM202.153 142.44L199.309 135.372L196.465 142.44H202.153ZM197.584 157.578C197.117 157.135 196.861 156.552 196.861 155.805C196.861 155.059 197.094 154.476 197.584 154.009C198.05 153.543 198.656 153.31 199.355 153.31C200.078 153.31 200.661 153.543 201.127 154.009C201.593 154.476 201.85 155.082 201.85 155.805C201.85 156.552 201.617 157.135 201.127 157.578C200.661 158.021 200.055 158.231 199.355 158.231C198.656 158.231 198.073 158.021 197.584 157.578Z" fill="white"/>
<path d="M235.024 129.237V151.35H229.872L220.104 139.57V151.35H213.972V129.237H219.124L228.892 141.017V129.237H235.024Z" fill="white"/>
<path d="M61.8807 109.34L61.8574 102.808L58.6869 108.127H57.1482L54.001 102.995V109.34H50.7839V97.0466H53.6513L57.9642 104.138L62.1838 97.0466H65.0512L65.0978 109.34H61.8807Z" fill="white"/>
<path d="M75.7751 106.96H70.5763L69.6205 109.34H66.077L71.5088 97.0466H74.9358L80.391 109.34H76.7775L75.7751 106.96ZM70.7861 95.577C70.1567 95.1572 69.807 94.5973 69.7604 93.8975H71.6953C71.742 94.1308 71.8818 94.3174 72.1616 94.4574C72.4413 94.5973 72.791 94.6673 73.2107 94.6673C73.6303 94.6673 73.98 94.5973 74.2597 94.4574C74.5395 94.3174 74.6794 94.1308 74.726 93.8975H76.6609C76.6143 94.5973 76.2646 95.1572 75.6352 95.577C75.0057 95.9969 74.1898 96.2068 73.2107 96.2068C72.2315 96.2068 71.4156 95.9969 70.7861 95.577ZM73.3972 91.0984H76.6609L73.8401 93.2911H71.5322L73.3972 91.0984ZM74.7493 104.394L73.164 100.452L71.5788 104.394H74.7493Z" fill="white"/>
<path d="M83.8178 108.78C82.7921 108.243 81.9995 107.473 81.3933 106.494C80.8105 105.514 80.5074 104.418 80.5074 103.181C80.5074 101.945 80.8105 100.849 81.3933 99.869C81.9761 98.8893 82.7921 98.1429 83.8178 97.583C84.8436 97.0465 86.0092 96.7666 87.2914 96.7666C88.4104 96.7666 89.4362 96.9765 90.3221 97.3731C91.2313 97.7696 91.9773 98.3528 92.5601 99.0992L90.3454 101.105C89.5528 100.149 88.5736 99.6591 87.4546 99.6591C86.7785 99.6591 86.1957 99.799 85.6595 100.102C85.1467 100.406 84.727 100.802 84.4473 101.339C84.1908 101.898 84.051 102.505 84.051 103.205C84.051 103.904 84.1908 104.511 84.4706 105.047C84.7503 105.584 85.17 106.004 85.6829 106.284C86.1957 106.587 86.8019 106.727 87.4779 106.727C88.6202 106.727 89.5761 106.237 90.3687 105.281L92.5834 107.287C91.9773 108.033 91.2313 108.616 90.3454 109.013C89.4362 109.409 88.4337 109.619 87.3147 109.619C86.0092 109.596 84.8436 109.316 83.8178 108.78Z" fill="white"/>
<path d="M103.983 104.885L102.678 106.284V109.363H99.2275V97.0703H102.678V102.179L107.434 97.0703H111.257L106.245 102.529L111.537 109.387H107.504L103.983 104.885Z" fill="white"/>
<path d="M122.33 106.657V109.34H112.469V97.0466H122.121V99.7292H115.919V101.805H121.351V104.418H115.896V106.657H122.33ZM116.339 112.815C116.083 112.559 115.943 112.232 115.943 111.836C115.943 111.416 116.083 111.089 116.339 110.832C116.595 110.576 116.945 110.436 117.341 110.436C117.738 110.436 118.064 110.576 118.344 110.832C118.6 111.089 118.74 111.416 118.74 111.836C118.74 112.255 118.6 112.582 118.344 112.815C118.087 113.072 117.761 113.188 117.341 113.188C116.922 113.188 116.595 113.048 116.339 112.815Z" fill="white"/>
<path d="M126.876 99.7991H123.1V97.0466H134.103V99.7991H130.35V109.34H126.876V99.7991Z" fill="white"/>
</svg>
