<svg width="743" height="544" viewBox="0 0 743 544" fill="none" xmlns="http://www.w3.org/2000/svg">
<path d="M743 543.5C668.167 467.5 455.8 295 205 213C251.5 233 460.5 317 743 543.5Z" fill="#2B1C4D"/>
<path d="M500.5 214.5C341.7 114.9 100.667 30 0 0C58.8 7.2 182.5 44.3333 237 62C246.833 73.6156 284.4 100.977 356 117.5C445.5 138.153 344.5 48.5 325 0C436.6 8.8 583.167 88 642.5 126.5L637.5 166C578.333 134.5 452.1 70.3 420.5 65.5C381 59.5 437.5 149.5 500.5 214.5Z" fill="url(#paint0_linear)"/>
<defs>
<linearGradient id="paint0_linear" x1="321.25" y1="-2.71598e-05" x2="625.5" y2="30.5" gradientUnits="userSpaceOnUse">
<stop offset="0.62463" stop-color="#0F9D88"/>
<stop offset="1" stop-color="#201744" stop-opacity="0"/>
</linearGradient>
</defs>
</svg>
