<svg width="678" height="633" viewBox="0 0 678 633" fill="none" xmlns="http://www.w3.org/2000/svg">
<path d="M149.846 227C317.42 121.596 571.771 31.7483 678 0C615.951 7.61958 485.416 46.9169 427.905 65.6131C417.528 77.9055 377.886 106.862 302.33 124.347C207.885 146.204 314.465 51.3263 335.043 0C217.277 9.31282 62.6117 93.1282 0 133.872L5.27625 175.674C67.7121 142.338 200.92 74.3967 234.266 69.317C275.949 62.9674 216.327 158.212 149.846 227Z" fill="url(#paint0_linear)"/>
<path d="M252.381 290.288C139.181 350.598 36.9603 453.55 0 497.488C175.368 332.838 321.044 326.825 458.369 290.288C568.229 261.058 478.164 337.925 419.398 380.013L176.76 519.688C180.471 541.579 189.008 594.89 193.461 633C210.163 605.25 330.323 607.563 388.315 612.188C386.459 580.429 377.737 505.165 357.695 458.175C864.313 147.838 393.882 214.9 252.381 290.288Z" fill="#2B1D4D"/>
<defs>
<linearGradient id="paint0_linear" x1="339" y1="-2.87425e-05" x2="17.9211" y2="32.0951" gradientUnits="userSpaceOnUse">
<stop offset="0.62463" stop-color="#0F9D88"/>
<stop offset="1" stop-color="#201744" stop-opacity="0"/>
</linearGradient>
</defs>
</svg>
