<svg fill="none" height="655" viewBox="0 0 662 655" width="662" xmlns="http://www.w3.org/2000/svg" xmlns:xlink="http://www.w3.org/1999/xlink"><linearGradient id="a" gradientUnits="userSpaceOnUse" x1="319.579" x2="625.354" y1="408.719" y2="408.073"><stop offset=".62463" stop-color="#0f9d88"/><stop offset="1" stop-color="#201744" stop-opacity="0"/></linearGradient><path d="m519.744 603.847c-168.118-82.908-416.545-142.818-519.744-162.409 59.2275 1.174 186.066 25.515 242.082 37.539 10.965 10.554 51.124 33.947 124.034 43.092 91.138 11.43-18.468-67.47-42.806-113.732 111.916-2.612 265.787 61.249 328.733 93.505l-.951 39.804c-62.067-25.31-194.183-76.319-226.108-77.876-39.905-1.946 25.467 81.832 94.76 140.077z" fill="url(#a)"/><path d="m396.236 155.615c-101.31-11.807-214.743 9.237-258.796 21.234 189.184-28.273 287.151 33.733 393.474 72.002 85.059 30.616-8.62 40.106-66.092 41.025l-221.862-18.505c-7.482 15.993-26.031 54.712-40.369 81.645 23.48-10.583 100.996 45.317 136.819 74.59 13.161-21.604 41.525-74.761 49.691-114.556 471.704 26.409 133.774-142.677 7.135-157.435z" fill="#2b1d4d"/></svg>