<svg width="662" height="655" viewBox="0 0 662 655" fill="none" xmlns="http://www.w3.org/2000/svg">
<path d="M519.744 603.847C351.626 520.939 103.199 461.029 0 441.438C59.2275 442.612 186.066 466.953 242.082 478.977C253.047 489.531 293.206 512.924 366.116 522.069C457.254 533.499 347.648 454.599 323.31 408.337C435.226 405.725 589.097 469.586 652.043 501.842L651.092 541.646C589.025 516.336 456.909 465.327 424.984 463.77C385.079 461.824 450.451 545.602 519.744 603.847Z" fill="url(#paint0_linear)"/>
<path d="M396.236 155.615C294.926 143.808 181.493 164.852 137.44 176.849C326.624 148.576 424.591 210.582 530.914 248.851C615.973 279.467 522.294 288.957 464.822 289.876L242.96 271.371C235.478 287.364 216.929 326.083 202.591 353.016C226.071 342.433 303.587 398.333 339.41 427.606C352.571 406.002 380.935 352.845 389.101 313.05C860.805 339.459 522.875 170.373 396.236 155.615Z" fill="#2B1D4D"/>
<defs>
<linearGradient id="paint0_linear" x1="319.579" y1="408.719" x2="625.354" y2="408.073" gradientUnits="userSpaceOnUse">
<stop offset="0.62463" stop-color="#0F9D88"/>
<stop offset="1" stop-color="#201744" stop-opacity="0"/>
</linearGradient>
</defs>
</svg>
