<svg fill="none" height="633" viewBox="0 0 678 633" width="678" xmlns="http://www.w3.org/2000/svg" xmlns:xlink="http://www.w3.org/1999/xlink"><linearGradient id="a" gradientUnits="userSpaceOnUse" x1="339" x2="17.9211" y1="-.000029" y2="32.0951"><stop offset=".62463" stop-color="#0f9d88"/><stop offset="1" stop-color="#201744" stop-opacity="0"/></linearGradient><path d="m149.846 227c167.574-105.404 421.925-195.2517 528.154-227-62.049 7.61958-192.584 46.9169-250.095 65.6131-10.377 12.2924-50.019 41.2489-125.575 58.7339-94.445 21.857 12.135-73.0207 32.713-124.347-117.766 9.31282-272.4313 93.1282-335.043 133.872l5.27625 41.802c62.43585-33.336 195.64375-101.2773 228.98975-106.357 41.683-6.3496-17.939 88.895-84.42 157.683z" fill="url(#a)"/><path d="m252.381 290.288c-113.2 60.31-215.4207 163.262-252.381 207.2 175.368-164.65 321.044-170.663 458.369-207.2 109.86-29.23 19.795 47.637-38.971 89.725l-242.638 139.675c3.711 21.891 12.248 75.202 16.701 113.312 16.702-27.75 136.862-25.437 194.854-20.812-1.856-31.759-10.578-107.023-30.62-154.013 506.618-310.337 36.187-243.275-105.314-167.887z" fill="#2b1d4d"/></svg>