<svg fill="none" height="25" viewBox="0 0 25 25" width="25" xmlns="http://www.w3.org/2000/svg"><path d="m9.84011 2.88479 1.32449-.70407-.7044-1.324316-1.32444.704036zm.93919 1.76578 1.3245-.70407zm-4.47121.11168-.70435-1.32435-1.32452.70406.70437 1.32436zm.93916 1.76578 1.32449-.70406zm2.94675 5.54047.7342 1.308 1.2789-.7174-.6886-1.2947zm-5.47573 3.0719-.73421-1.308zm-1.74425.9786-.73421-1.3081-1.308201.734.734231 1.308zm1.95793 3.4881-1.30819.7339.73422 1.308 1.30818-.7339zm1.74425-.9786.73421 1.308zm5.3966-3.0276 1.3245-.704-.7205-1.3547-1.3382.7507zm2.9041 5.4604-1.3244.704zm.9392 1.7658-1.3245.704.7044 1.3243 1.3245-.704zm3.532-1.8775.7044 1.3243 1.3245-.704-.7044-1.3244zm-.9391-1.7658-1.3245.7041zm-2.9468-5.5405-.7342-1.308-1.2789.7175.6886 1.2946zm5.4757-3.0719.7342 1.308zm1.7442-.97853.7342 1.30803 1.3082-.7339-.7342-1.30805zm-1.9579-3.48808 1.3082-.73392-.7342-1.30802-1.3082.73391zm-1.7442.97855.7342 1.30803zm-5.3966 3.02756-1.3245.704.7205 1.3548 1.3382-.7508zm-5.16779-6.52204.93916 1.76578 2.64903-1.40814-.9392-1.76578zm-1.50317 2.49774 3.53206-1.87746-1.40874-2.6487-3.53202 1.87746zm1.5593-.26263-.93915-1.76579-2.649 1.40814.93916 1.76578zm2.94676 5.54043-2.94676-5.54043-2.64899 1.40813 2.94676 5.5404zm-6.06602 5.0841 5.47572-3.072-1.46841-2.6161-5.47573 3.072zm-1.74425.9785 1.74425-.9785-1.46842-2.6161-1.74425.9785zm2.5319 1.4461-1.95793-3.488-2.61636 1.4678 1.95792 3.4881zm-.29815-1.5526-1.74425.9785 1.46843 2.6161 1.74425-.9786zm5.39662-3.0276-5.39662 3.0276 1.46843 2.616 5.39659-3.0275zm4.9628 6.0643-2.9041-5.4603-2.649 1.4081 2.9042 5.4603zm.9392 1.7658-.9392-1.7658-2.6489 1.4081.9391 1.7658zm1.5032-2.4977-3.532 1.8774 1.4087 2.6487 3.532-1.8775zm-1.5593.2626.9391 1.7658 2.649-1.4082-.9391-1.7658zm-2.9468-5.5405 2.9468 5.5405 2.649-1.4082-2.9468-5.5404zm6.066-5.08402-5.4757 3.07192 1.4684 2.6161 5.4757-3.072zm1.7442-.97854-1.7442.97854 1.4684 2.61602 1.7442-.9785zm-2.5319-1.44613 1.9579 3.48809 2.6164-1.46785-1.9579-3.48808zm.2982 1.55266 1.7442-.97855-1.4684-2.61606-1.7443.97854zm-5.3966 3.02753 5.3966-3.02753-1.4685-2.61607-5.3965 3.02754zm-4.96283-6.06426 2.90413 5.46026 2.649-1.40809-2.9041-5.46031z" fill="#ad47bf"/></svg>